<?xml version="1.0" encoding="UTF-8"?>
<!DOCTYPE svg PUBLIC "-//W3C//DTD SVG 1.1//EN" "http://www.w3.org/Graphics/SVG/1.1/DTD/svg11.dtd">
<!-- Creator: CorelDRAW 2020 -->
<svg xmlns="http://www.w3.org/2000/svg" xml:space="preserve" width="573px" height="225px" version="1.1" style="shape-rendering:geometricPrecision; text-rendering:geometricPrecision; image-rendering:optimizeQuality; fill-rule:evenodd; clip-rule:evenodd"
viewBox="0 0 573 225"
 xmlns:xlink="http://www.w3.org/1999/xlink"
 xmlns:xodm="http://www.corel.com/coreldraw/odm/2003">
 <defs>
  <style type="text/css">
   <![CDATA[
    .fil1 {fill:#8BC751;fill-rule:nonzero}
    .fil2 {fill:#F1F1F2;fill-rule:nonzero}
    .fil0 {fill:white;fill-rule:nonzero}
   ]]>
  </style>
 </defs>
 <g id="Слой_x0020_1">
  <metadata id="CorelCorpID_0Corel-Layer"/>
  <g id="_1642034792">
   <path class="fil0" d="M84.98 208.47l9.7 1.94c0.3,0.06 0.52,0.08 0.65,0.06 0.12,-0.03 0.24,-0.1 0.33,-0.23l0.49 0.1 -0.71 3.51 -0.7 -0.15c-0.06,-0.78 -0.27,-1.38 -0.64,-1.81 -0.36,-0.42 -1.06,-0.73 -2.09,-0.93l-3.28 -0.66 -0.98 4.94 2.17 0.43c0.59,0.14 1.03,0.13 1.34,-0.01 0.31,-0.15 0.51,-0.44 0.6,-0.88l0.7 0.14 -0.7 3.52 -0.71 -0.14c0.04,-0.42 -0.03,-0.75 -0.22,-1.01 -0.18,-0.26 -0.46,-0.42 -0.82,-0.5l-2.57 -0.51 -1.13 5.66 4.7 0.94c0.72,0.15 1.4,0.04 2.05,-0.29 0.64,-0.34 1.1,-0.86 1.38,-1.55l0.7 0.14 -0.69 3.46 -12.31 -2.45 0.14 -0.71c0.33,0.05 0.6,-0.02 0.82,-0.19 0.21,-0.17 0.36,-0.47 0.46,-0.89l1.95 -9.73c0.07,-0.43 0.04,-0.75 -0.09,-0.98 -0.14,-0.23 -0.36,-0.4 -0.68,-0.51l0.14 -0.71z"/>
   <path class="fil0" d="M105.63 214.36l-0.09 3.4c-0.02,0.5 0.17,0.92 0.6,1.25 0.42,0.32 0.91,0.49 1.45,0.5 0.66,0.03 1.15,-0.2 1.49,-0.69 0.34,-0.49 0.53,-1.42 0.57,-2.81 0.03,-1.4 -0.09,-2.34 -0.38,-2.82 -0.28,-0.48 -0.77,-0.75 -1.46,-0.8 -0.59,-0.05 -1.1,0.11 -1.51,0.48 -0.43,0.37 -0.65,0.86 -0.67,1.49zm-4.27 11l0.02 -0.71c0.28,-0.03 0.51,-0.13 0.7,-0.32 0.18,-0.19 0.29,-0.46 0.31,-0.82l0.21 -7.81c0.02,-1.39 0.52,-2.47 1.48,-3.26 0.96,-0.79 2.29,-1.16 3.99,-1.11 1.56,0.04 2.77,0.53 3.64,1.48 0.87,0.95 1.29,2.06 1.25,3.31 -0.03,1.06 -0.28,1.97 -0.74,2.74 -0.47,0.76 -1.13,1.3 -1.97,1.64 -0.3,0.12 -0.6,0.22 -0.89,0.28 -0.3,0.06 -0.58,0.08 -0.86,0.08 -0.59,-0.02 -1.13,-0.1 -1.63,-0.25 -0.49,-0.14 -0.96,-0.39 -1.39,-0.71l-0.1 3.69c-0.02,0.3 0.07,0.57 0.27,0.8 0.2,0.22 0.46,0.35 0.76,0.39l-0.02 0.72 -5.03 -0.14z"/>
   <path class="fil0" d="M129.56 220.99l0.71 0.69c-0.89,0.99 -1.74,1.72 -2.57,2.19 -0.81,0.48 -1.68,0.77 -2.59,0.89 -2.06,0.27 -3.82,-0.21 -5.28,-1.42 -1.46,-1.21 -2.32,-2.85 -2.6,-4.91 -0.26,-2.08 0.14,-3.86 1.23,-5.33 1.09,-1.49 2.56,-2.36 4.44,-2.6 0.4,-0.05 0.77,-0.08 1.12,-0.08 0.35,0.02 0.72,0.05 1.12,0.09 0.34,0.07 0.62,0.11 0.81,0.12 0.2,0.02 0.38,0.01 0.53,-0.03 0.06,0.01 0.12,0 0.19,-0.05 0.07,-0.04 0.15,-0.11 0.24,-0.2 0.03,-0.02 0.05,-0.05 0.07,-0.07 0.03,-0.03 0.05,-0.06 0.07,-0.09l0.72 -0.09 0.42 3.26 -0.71 0.1c-0.36,-0.67 -0.92,-1.19 -1.7,-1.56 -0.77,-0.37 -1.58,-0.49 -2.42,-0.38 -0.12,0.02 -0.24,0.05 -0.37,0.08 -0.12,0.02 -0.25,0.07 -0.39,0.13 -0.99,0.41 -1.65,1.1 -1.97,2.06 -0.32,0.96 -0.34,2.44 -0.07,4.45 0.25,1.93 0.78,3.3 1.58,4.1 0.8,0.8 1.94,1.11 3.4,0.92 0.69,-0.09 1.36,-0.31 2.01,-0.67 0.65,-0.36 1.32,-0.89 2.01,-1.6z"/>
   <path class="fil0" d="M107.9 47.7l4.72 0c0,0 -0.89,-1.87 -1.03,-6.79 4.94,0.13 6.82,1.01 6.82,1.01l0 -4.72c0,0 -1.88,0.89 -6.82,1.03 0.14,-4.94 1.03,-6.82 1.03,-6.82l-4.72 0c0,0 0.86,1.88 1,6.82 -4.91,-0.15 -6.79,-1.03 -6.79,-1.03l0 4.72c0,0 1.88,-0.87 6.79,-1.01 -0.14,4.92 -1,6.79 -1,6.79z"/>
   <path class="fil0" d="M169.42 71.1c0.01,14.4 -0.03,25.36 -0.01,39.76 0.01,17.05 0,51.93 -0.01,59.09 -6.74,-1.73 -13.76,-3.21 -20.63,-3.43 -13.16,-0.41 -28.01,3.31 -38.33,12.25 -0.04,0.02 -0.07,0.06 -0.11,0.1 -9.64,-8.44 -23.19,-12.13 -35.53,-12.29 -7.87,-0.1 -15.91,1.43 -23.66,3.17 -0.01,-14.05 -0.02,-28.73 -0.03,-42.75 -0.02,-18.73 0.03,-54.84 0.03,-55.9 0,-0.93 -3.67,-2.31 -3.67,-1.37 0.01,14.4 0.02,26.74 0.04,41.15 0.02,18.73 -0.04,58.99 -0.04,60.04 0,0.84 2.35,0.67 2.79,0.56 7.1,-1.71 14.55,-2.44 21.84,-2.57 12.74,-0.23 27.04,2.56 36.5,11.9 0.72,0.7 2.74,0.7 3.46,0 9.6,-9.48 23.77,-12.32 36.71,-11.96 7.2,0.19 14.61,1.08 21.58,2.95 0.44,0.11 2.71,0.27 2.71,-0.56 -0.02,-14.4 -0.04,-29.49 -0.05,-43.9 -0.02,-18.8 0.05,-56.52 0.05,-57.62 -0.01,-0.93 -3.64,0.45 -3.64,1.38z"/>
   <path class="fil0" d="M66.48 58.37c6.73,-5.1 11.59,-10.75 20.08,-10.75 4.34,0 7.24,4.42 7.24,7.12 0,1.9 -0.5,5.68 -4.7,5.68 -3.67,0 -4.74,-4.47 -3.24,-6.94 -5.42,0 -5.71,8.39 3.31,8.39 3.86,0 7.84,-2.24 7.84,-6.9 0,-3.13 -2.23,-8.59 -10.46,-8.59 -9.03,0 -14.81,4.6 -22.1,10.07 -7.53,5.64 -14.34,7.18 -23.62,6.23l0 1.38 0.02 0c0,15.37 0,96.63 0,97.21 0,0.92 3.58,2.3 3.58,1.37 0,-13.9 0.01,-90.01 0.01,-98.15 7.98,0.59 15.62,-1.25 22.04,-6.12z"/>
   <path class="fil0" d="M179.55 62.68c-9.28,0.95 -16.08,-0.59 -23.62,-6.23 -7.29,-5.47 -13.06,-10.08 -22.1,-10.08 -8.23,0 -10.45,5.47 -10.45,8.6 0,4.66 3.98,6.9 7.84,6.9 9.01,0 8.72,-8.39 3.31,-8.39 1.49,2.48 0.43,6.94 -3.25,6.94 -4.2,0 -4.7,-3.79 -4.7,-5.68 0,-2.7 2.9,-7.12 7.24,-7.12 8.5,0 13.35,5.65 20.08,10.75 6.43,4.87 14.06,6.71 22.04,6.11 0,8.15 0.01,84.26 0.01,98.17 0,0.92 3.59,-0.46 3.59,-1.38 0,-0.58 -0.01,-81.83 -0.01,-97.21l0.02 0 0 -1.38z"/>
   <path class="fil0" d="M95.48 108.31c-2.22,-4.18 -10.02,-20.18 -13.35,-26.98 -2.24,-4.57 -5.3,-6.3 -7.62,-6.85 -1.59,-0.38 -9.47,0 -11.33,0.01l0 0.12c2.39,1.02 7.16,6.31 9.01,10.31 1.24,2.69 8.7,17.97 11.29,22.88 2.58,4.88 8.23,6.65 10.63,6.94 1.11,0.14 2.25,0.14 3.4,0.11 -11.64,15.36 -22.36,29.54 -21.14,27.86 -3.81,4.69 -7.44,6.57 -11,7.65l0.02 0.66c9.3,0 15.91,-6.84 17.06,-8.34 2.02,-2.64 12.32,-16.41 22.98,-30.52l0 33.32 9.19 0 0 -43.73c1.97,1.58 4.27,4.07 5.92,7.04 0.89,1.6 5.39,12.14 8.35,16.22 2.48,3.44 6.33,3.98 9.95,3.98 -6.73,8.88 -13.64,17.98 -18.42,24.21 -1.65,2.14 -3.3,4.21 -5.14,6.14 -0.73,0.76 -4.56,5.11 -8.01,5.11 -3.8,0 -6.22,-2.97 -6.22,-5.9 0,-3.19 1.72,-6.52 5.46,-7.35 3.57,-0.79 6.5,1.11 7.05,1.67 0,0 3.6,-1.02 3.6,-1.04 -2.05,-1.83 -7.6,-2.92 -10.88,-2.35 -5.05,0.86 -9.51,4.24 -9.51,9.37 0,3.45 3.48,7.16 10.44,7.16 8.36,0 13.9,-6.38 15.74,-8.39 0.91,-0.97 21.6,-28.46 33.44,-44l-0.01 0c0.28,-0.38 0.51,-0.69 0.7,-0.94 1.67,-2.29 7.63,-9.58 4.88,-12.77l-6.91 -0.01 0 0.38c3.52,2.04 -1.75,9.7 -4.5,13.34l-0.05 0c-2.93,3.88 -6.3,8.31 -9.76,12.87 -0.79,-0.77 -1.31,-1.74 -1.84,-2.76 -1.64,-3.1 -6.27,-12.17 -8.66,-17.13 -1.59,-3.3 -4.68,-6.52 -7.82,-6.69 -2.58,-0.13 -5.2,0.1 -7.8,0.13 4.86,-6.37 9.29,-12.11 12.42,-16.04 1.67,-2.11 3.29,-4.21 5.13,-6.13 0.73,-0.77 4.56,-5.12 8.02,-5.12 3.79,0 6.22,2.97 6.22,5.9 0,3.19 -1.72,6.52 -5.47,7.35 -3.57,0.79 -6.5,-1.1 -7.05,-1.66 0,0 -3.6,1 -3.6,1.04 2.05,1.83 7.6,2.9 10.88,2.34 5.05,-0.85 9.51,-4.23 9.51,-9.36 0,-3.46 -3.48,-7.16 -10.43,-7.16 -8.37,0 -13.91,6.38 -15.75,8.38 -0.64,0.69 -4.55,5.75 -9.88,12.74l0 -37.64 -9.19 0 0 49.72c-2.02,2.67 -4.09,5.39 -6.15,8.11 -1.54,-1.01 -2.83,-2.38 -3.8,-4.2z"/>
   <path class="fil0" d="M34.19 174.74l3.86 4.34 -0.52 0.47c-0.29,-0.35 -0.59,-0.49 -0.89,-0.42 -0.3,0.08 -0.53,0.37 -0.68,0.91l-1.72 5.55 0.09 0.11 4.81 -1.63c0.14,-0.04 0.3,-0.11 0.46,-0.19 0.17,-0.07 0.29,-0.15 0.36,-0.2 0.16,-0.17 0.23,-0.37 0.21,-0.62 -0.01,-0.23 -0.16,-0.57 -0.44,-1l0.54 -0.48 2.47 2.78 -0.54 0.48c-0.3,-0.15 -0.57,-0.23 -0.84,-0.25 -0.27,-0.01 -0.67,0.08 -1.2,0.27l-8.49 2.86c-1.38,0.45 -2.52,0.6 -3.42,0.44 -0.91,-0.17 -1.68,-0.61 -2.3,-1.31 -0.55,-0.62 -0.86,-1.23 -0.92,-1.81 -0.06,-0.59 0.13,-1.09 0.57,-1.47 0.35,-0.31 0.73,-0.48 1.14,-0.49 0.41,-0.02 0.79,0.15 1.12,0.54 0.27,0.3 0.41,0.62 0.43,0.96 0.02,0.36 -0.1,0.7 -0.36,1.07 -0.19,0.24 -0.28,0.43 -0.27,0.59 0.01,0.16 0.09,0.32 0.23,0.48 0.26,0.29 0.65,0.44 1.17,0.44 0.52,0.01 1.08,-0.09 1.65,-0.3l3.07 -9.88c0.08,-0.33 0.11,-0.64 0.09,-0.94 -0.03,-0.29 -0.1,-0.58 -0.21,-0.83l0.53 -0.47z"/>
   <path class="fil0" d="M49.52 190.13l-0.43 0.57c-0.27,-0.15 -0.53,-0.21 -0.8,-0.17 -0.26,0.05 -0.49,0.2 -0.69,0.47l-2.68 3.48 5.52 4.26 2.68 -3.49c0.2,-0.25 0.29,-0.5 0.28,-0.77 -0.02,-0.25 -0.14,-0.49 -0.35,-0.73l0.43 -0.57 3.93 3.03 -0.44 0.56c-0.32,-0.17 -0.6,-0.23 -0.84,-0.18 -0.25,0.06 -0.46,0.22 -0.65,0.47l-6.25 8.16c-0.2,0.26 -0.3,0.49 -0.3,0.68 0,0.2 0.13,0.47 0.38,0.82l-0.43 0.57 -3.94 -3.03 0.45 -0.57c0.38,0.15 0.67,0.2 0.87,0.16 0.19,-0.05 0.39,-0.19 0.6,-0.46l2.93 -3.82 -5.52 -4.25 -2.94 3.81c-0.21,0.26 -0.31,0.5 -0.29,0.73 0.02,0.22 0.15,0.48 0.39,0.78l-0.44 0.57 -3.94 -3.03 0.44 -0.57c0.36,0.13 0.65,0.18 0.85,0.14 0.21,-0.03 0.41,-0.19 0.62,-0.44l6.26 -8.15c0.2,-0.25 0.28,-0.5 0.26,-0.77 -0.03,-0.26 -0.14,-0.5 -0.34,-0.73l0.44 -0.57 3.94 3.04z"/>
   <path class="fil0" d="M61.53 198.45l4.36 2.41 -0.35 0.63c-0.31,-0.11 -0.58,-0.12 -0.82,-0.03 -0.25,0.08 -0.47,0.32 -0.67,0.71l-4.8 8.68c-0.22,0.39 -0.31,0.71 -0.25,0.97 0.06,0.25 0.22,0.47 0.47,0.66l-0.34 0.62 -4.36 -2.4 0.35 -0.63c0.28,0.12 0.55,0.15 0.8,0.06 0.26,-0.09 0.49,-0.34 0.71,-0.73l4.79 -8.67c0.2,-0.4 0.28,-0.72 0.22,-0.98 -0.06,-0.27 -0.21,-0.48 -0.45,-0.66l0.34 -0.64z"/>
   <path class="fil0" d="M73.52 205.52l-1.84 4.78 1 0.38c0.71,0.29 1.36,0.28 1.94,0 0.59,-0.28 1.03,-0.77 1.3,-1.45 0.29,-0.8 0.31,-1.47 0.04,-2.05 -0.27,-0.58 -0.87,-1.05 -1.81,-1.41l-0.63 -0.25zm-2.22 5.77l-2.06 5.31 1.08 0.42c0.89,0.35 1.65,0.41 2.28,0.15 0.63,-0.26 1.1,-0.81 1.43,-1.65 0.35,-0.91 0.31,-1.72 -0.11,-2.42 -0.42,-0.7 -1.07,-1.22 -1.93,-1.55l-0.69 -0.26zm-1.11 -8.18l5.03 1.94c1.33,0.51 2.28,1.06 2.87,1.65 0.58,0.57 0.89,1.28 0.93,2.11 0,0.22 -0.01,0.42 -0.04,0.62 -0.03,0.21 -0.08,0.39 -0.14,0.57 -0.31,0.8 -0.83,1.36 -1.55,1.69 -0.72,0.34 -1.55,0.44 -2.5,0.29l-0.06 0.18c1.02,0.53 1.74,1.23 2.14,2.11 0.41,0.87 0.44,1.75 0.09,2.63 -0.42,1.12 -1.14,1.8 -2.14,2.05 -1,0.24 -2.24,0.07 -3.72,-0.5l-5.95 -2.29 0.26 -0.68c0.31,0.09 0.58,0.06 0.81,-0.06 0.22,-0.12 0.4,-0.34 0.51,-0.64l3.7 -9.59c0.1,-0.3 0.12,-0.57 0.04,-0.81 -0.09,-0.24 -0.26,-0.44 -0.54,-0.6l0.26 -0.67z"/>
   <path class="fil0" d="M132.77 209.16l4.74 -1.53 0.22 0.69c-0.37,0.27 -0.58,0.5 -0.65,0.67 -0.07,0.19 -0.05,0.43 0.04,0.72l2.3 7.11 0.09 -0.03 3.98 -8.17 -0.28 -0.87c-0.09,-0.29 -0.25,-0.51 -0.47,-0.64 -0.22,-0.13 -0.49,-0.18 -0.83,-0.14l-0.22 -0.68 4.74 -1.53 0.22 0.68c-0.31,0.16 -0.5,0.35 -0.59,0.58 -0.1,0.24 -0.09,0.5 0,0.81l3.15 9.77c0.1,0.32 0.26,0.55 0.47,0.69 0.21,0.13 0.49,0.17 0.82,0.1l0.21 0.68 -4.73 1.53 -0.22 -0.68c0.28,-0.14 0.47,-0.32 0.59,-0.55 0.11,-0.23 0.12,-0.51 0.01,-0.85l-2.33 -7.24 -0.1 0.03 -3.97 8.18 0.31 0.99c0.09,0.31 0.24,0.53 0.46,0.67 0.22,0.13 0.5,0.17 0.84,0.11l0.23 0.69 -4.74 1.52 -0.23 -0.68c0.3,-0.13 0.5,-0.32 0.59,-0.56 0.1,-0.24 0.1,-0.51 0,-0.83l-3.15 -9.77c-0.11,-0.31 -0.27,-0.52 -0.48,-0.65 -0.21,-0.14 -0.48,-0.18 -0.8,-0.14l-0.22 -0.68z"/>
   <path class="fil0" d="M149.97 202.79l0.7 -0.38c0.21,0.01 0.41,-0.01 0.59,-0.07 0.19,-0.06 0.41,-0.15 0.67,-0.3l8.01 -4.35c0.23,-0.11 0.42,-0.23 0.57,-0.37 0.15,-0.14 0.3,-0.3 0.44,-0.5l0.68 -0.37 1.72 3.16 -0.63 0.34c-0.67,-0.49 -1.31,-0.77 -1.94,-0.87 -0.63,-0.08 -1.25,0.04 -1.86,0.37l-1.16 0.63 5.33 9.79c0.15,0.3 0.33,0.49 0.54,0.56 0.21,0.08 0.51,0.06 0.88,-0.03l0.34 0.63 -4.36 2.38 -0.35 -0.63c0.29,-0.3 0.46,-0.55 0.5,-0.74 0.03,-0.2 -0.03,-0.44 -0.18,-0.74l-5.33 -9.78 -0.98 0.53c-0.75,0.4 -1.26,0.89 -1.56,1.47 -0.3,0.58 -0.39,1.28 -0.26,2.09l-0.64 0.34 -1.72 -3.16z"/>
   <path class="fil0" d="M165.22 194.46l7.72 -6.19c0.24,-0.19 0.39,-0.34 0.45,-0.45 0.07,-0.11 0.08,-0.24 0.04,-0.4l0.39 -0.31 2.24 2.79 -0.56 0.45c-0.64,-0.46 -1.24,-0.68 -1.8,-0.68 -0.55,0.01 -1.24,0.34 -2.06,1.01l-2.61 2.08 3.15 3.93 1.73 -1.39c0.48,-0.36 0.76,-0.71 0.84,-1.04 0.09,-0.33 -0.01,-0.67 -0.29,-1.01l0.57 -0.45 2.24 2.81 -0.56 0.44c-0.29,-0.29 -0.6,-0.46 -0.91,-0.48 -0.32,-0.03 -0.63,0.08 -0.92,0.31l-2.04 1.64 3.61 4.5 3.74 -3c0.57,-0.45 0.94,-1.03 1.09,-1.75 0.15,-0.71 0.06,-1.4 -0.3,-2.05l0.57 -0.45 2.21 2.77 -9.8 7.83 -0.45 -0.56c0.24,-0.22 0.37,-0.47 0.37,-0.74 0.01,-0.28 -0.12,-0.59 -0.39,-0.94l-6.19 -7.73c-0.28,-0.34 -0.55,-0.53 -0.81,-0.57 -0.26,-0.04 -0.53,0.02 -0.82,0.18l-0.45 -0.55z"/>
   <path class="fil0" d="M177.32 183.97l0.54 -0.59c0.19,-0.06 0.36,-0.15 0.52,-0.28 0.16,-0.11 0.33,-0.28 0.53,-0.49l6.05 -6.82c0.18,-0.18 0.32,-0.36 0.42,-0.54 0.09,-0.19 0.17,-0.39 0.24,-0.62l0.51 -0.58 2.69 2.39 -0.48 0.54c-0.78,-0.24 -1.49,-0.29 -2.12,-0.16 -0.62,0.13 -1.16,0.45 -1.62,0.97l-0.88 0.99 8.34 7.4c0.24,0.23 0.47,0.35 0.7,0.34 0.23,0 0.5,-0.11 0.81,-0.32l0.54 0.47 -3.3 3.72 -0.54 -0.48c0.18,-0.38 0.25,-0.66 0.22,-0.86 -0.03,-0.19 -0.17,-0.41 -0.42,-0.62l-8.34 -7.41 -0.74 0.84c-0.56,0.62 -0.88,1.26 -0.96,1.91 -0.09,0.64 0.06,1.33 0.46,2.05l-0.48 0.54 -2.69 -2.39z"/>
   <path class="fil0" d="M7.68 156.32l-1.78 -5.55 0.67 -0.22c0.13,0.44 0.35,0.68 0.66,0.74 0.3,0.05 0.64,-0.13 1,-0.56l3.88 -4.42 -0.05 -0.14 -5.12 -0.43c-0.14,0 -0.31,-0.01 -0.51,0 -0.18,0 -0.32,0.02 -0.41,0.05 -0.22,0.08 -0.36,0.23 -0.45,0.47 -0.08,0.22 -0.08,0.6 -0.01,1.1l-0.69 0.22 -1.14 -3.54 0.7 -0.22c0.21,0.25 0.43,0.44 0.68,0.56 0.24,0.12 0.65,0.19 1.21,0.23l9.05 0.78c1.46,0.13 2.58,0.45 3.34,0.97 0.77,0.52 1.31,1.22 1.59,2.13 0.26,0.79 0.29,1.46 0.11,2.03 -0.19,0.56 -0.57,0.93 -1.14,1.12 -0.44,0.14 -0.87,0.14 -1.25,-0.01 -0.39,-0.14 -0.66,-0.46 -0.82,-0.95 -0.12,-0.37 -0.12,-0.73 0,-1.06 0.12,-0.33 0.38,-0.6 0.78,-0.83 0.26,-0.14 0.42,-0.28 0.48,-0.44 0.06,-0.15 0.06,-0.33 -0.01,-0.53 -0.12,-0.37 -0.42,-0.66 -0.9,-0.88 -0.48,-0.21 -1.03,-0.34 -1.66,-0.37l-6.9 7.86c-0.21,0.26 -0.37,0.53 -0.47,0.82 -0.1,0.28 -0.14,0.56 -0.14,0.85l-0.7 0.22z"/>
   <path class="fil0" d="M2.48 138.48l-0.7 -4.92 0.73 -0.1c0.11,0.32 0.28,0.55 0.48,0.69 0.21,0.14 0.48,0.18 0.8,0.12l3.6 -0.51c-0.08,-0.74 -0.35,-1.35 -0.82,-1.8 -0.46,-0.47 -1.14,-0.81 -2.03,-1.04 -1.5,-0.35 -2.47,-0.74 -2.93,-1.17 -0.46,-0.42 -0.74,-1.03 -0.85,-1.81 -0.03,-0.24 -0.05,-0.46 -0.04,-0.69 0,-0.22 0.01,-0.43 0.04,-0.62l3.23 -0.46 0.1 0.71c-0.2,0.1 -0.35,0.24 -0.45,0.42 -0.1,0.18 -0.13,0.37 -0.11,0.55 0.03,0.21 0.13,0.4 0.28,0.58 0.16,0.17 0.4,0.35 0.72,0.53 1.29,0.74 2.07,1.24 2.32,1.51 0.26,0.26 0.48,0.59 0.67,0.97l0.15 -0.03c0,-0.33 0.02,-0.69 0.06,-1.06 0.03,-0.37 0.09,-0.7 0.17,-1.02 0.19,-0.67 0.51,-1.22 0.96,-1.67 0.45,-0.44 1.18,-0.87 2.18,-1.28 0.84,-0.32 1.33,-0.51 1.45,-0.57 0.12,-0.06 0.22,-0.11 0.29,-0.18 0.35,-0.21 0.63,-0.5 0.82,-0.86 0.2,-0.35 0.28,-0.72 0.26,-1.09l0.78 -0.11c0.13,0.23 0.23,0.48 0.32,0.73 0.08,0.25 0.14,0.51 0.18,0.79 0.1,0.75 0.06,1.41 -0.14,2.01 -0.19,0.59 -0.53,1.07 -1.01,1.45 -0.15,0.15 -0.33,0.27 -0.51,0.37 -0.18,0.1 -0.75,0.32 -1.72,0.65 -0.89,0.33 -1.53,0.63 -1.93,0.9 -0.39,0.26 -0.7,0.57 -0.94,0.93 -0.2,0.33 -0.33,0.68 -0.42,1.06 -0.08,0.38 -0.09,0.76 -0.02,1.15l5.66 -0.8c0.33,-0.06 0.58,-0.16 0.75,-0.35 0.16,-0.19 0.25,-0.45 0.26,-0.79l0.72 -0.1 0.69 4.92 -0.72 0.1c-0.09,-0.31 -0.24,-0.53 -0.45,-0.67 -0.22,-0.14 -0.5,-0.18 -0.83,-0.14l-10.31 1.46c-0.32,0.06 -0.57,0.18 -0.74,0.37 -0.18,0.19 -0.27,0.44 -0.28,0.77l-0.72 0.1z"/>
   <path class="fil0" d="M3.36 114.88l3.44 0.09c0.51,0.03 0.94,-0.17 1.26,-0.6 0.34,-0.42 0.51,-0.91 0.52,-1.46 0.03,-0.65 -0.2,-1.15 -0.7,-1.48 -0.5,-0.35 -1.45,-0.54 -2.86,-0.57 -1.41,-0.04 -2.36,0.08 -2.85,0.37 -0.49,0.29 -0.76,0.78 -0.82,1.47 -0.04,0.59 0.12,1.1 0.5,1.52 0.37,0.43 0.87,0.64 1.51,0.66zm11.16 4.29l-0.73 -0.03c-0.02,-0.27 -0.13,-0.51 -0.32,-0.69 -0.19,-0.19 -0.46,-0.29 -0.83,-0.32l-7.92 -0.21c-1.41,-0.02 -2.51,-0.52 -3.31,-1.49 -0.8,-0.95 -1.17,-2.28 -1.13,-4 0.04,-1.55 0.55,-2.77 1.51,-3.64 0.96,-0.87 2.07,-1.29 3.35,-1.25 1.08,0.03 2,0.28 2.77,0.74 0.77,0.46 1.33,1.13 1.67,1.98 0.13,0.3 0.23,0.59 0.29,0.89 0.05,0.3 0.08,0.58 0.07,0.86 -0.01,0.58 -0.1,1.13 -0.24,1.63 -0.15,0.49 -0.39,0.96 -0.73,1.39l3.75 0.1c0.31,0.02 0.58,-0.06 0.81,-0.27 0.23,-0.2 0.36,-0.45 0.39,-0.76l0.74 0.02 -0.14 5.05z"/>
   <path class="fil0" d="M5.73 97.14l5 3.51 0.08 0.02 0.95 -5.13 -0.06 0 -5.95 1.52 -0.02 0.08zm8.46 8.19c-0.02,-0.29 -0.16,-0.58 -0.38,-0.88 -0.23,-0.29 -0.52,-0.57 -0.89,-0.85l-7.77 -5.56c-0.15,-0.11 -0.33,-0.19 -0.51,-0.26 -0.19,-0.07 -0.41,-0.14 -0.66,-0.2 -0.16,-0.03 -0.29,0.04 -0.39,0.21 -0.1,0.17 -0.16,0.38 -0.18,0.65l-0.72 -0.14c0.06,-0.55 0.04,-1.04 -0.06,-1.49 -0.1,-0.44 -0.29,-0.85 -0.55,-1.19l0.13 -0.71 11.88 -3.13c0.78,-0.19 1.4,-0.39 1.85,-0.6 0.47,-0.21 0.8,-0.46 1.03,-0.77l0.71 0.13 -1.04 5.63 -0.72 -0.14c0.07,-0.31 0.01,-0.58 -0.18,-0.84 -0.19,-0.24 -0.44,-0.39 -0.76,-0.45 -0.05,-0.01 -0.15,-0.01 -0.3,0.02 -0.15,0.02 -0.26,0.04 -0.34,0.04l-1.42 0.37 -1.17 6.29 1.09 0.72c0.53,0.38 0.96,0.49 1.28,0.34 0.32,-0.14 0.59,-0.49 0.79,-1.05l0.71 0.13 -0.71 3.86 -0.72 -0.13z"/>
   <path class="fil0" d="M7 78.11l0.69 0.24c-0.03,0.35 0.02,0.63 0.14,0.84 0.13,0.2 0.35,0.36 0.64,0.45l9.89 3.3c0.31,0.11 0.6,0.11 0.84,0.01 0.24,-0.11 0.42,-0.29 0.56,-0.57l0.69 0.23 -1.58 4.73 -0.69 -0.23c0.07,-0.29 0.04,-0.55 -0.09,-0.79 -0.12,-0.24 -0.35,-0.42 -0.69,-0.53l-9.88 -3.3c-0.32,-0.1 -0.61,-0.1 -0.85,0.02 -0.24,0.11 -0.43,0.3 -0.56,0.57l-0.7 -0.24 1.59 -4.73zm-3.37 1c-0.4,-0.13 -0.69,-0.38 -0.88,-0.77 -0.2,-0.4 -0.23,-0.8 -0.11,-1.19 0.14,-0.38 0.4,-0.66 0.78,-0.86 0.38,-0.2 0.77,-0.23 1.18,-0.09 0.41,0.13 0.71,0.39 0.89,0.77 0.19,0.38 0.22,0.76 0.09,1.16 -0.14,0.41 -0.39,0.7 -0.77,0.9 -0.38,0.19 -0.77,0.21 -1.18,0.08zm-1.29 3.85c-0.4,-0.13 -0.69,-0.39 -0.89,-0.78 -0.2,-0.39 -0.23,-0.78 -0.1,-1.17 0.13,-0.38 0.38,-0.67 0.77,-0.86 0.39,-0.21 0.78,-0.23 1.2,-0.09 0.41,0.13 0.7,0.39 0.89,0.77 0.18,0.37 0.21,0.76 0.08,1.16 -0.13,0.4 -0.39,0.7 -0.77,0.89 -0.38,0.19 -0.77,0.21 -1.18,0.08z"/>
   <path class="fil0" d="M11.53 67.32l0.64 0.34c-0.09,0.29 -0.1,0.55 -0.01,0.8 0.09,0.25 0.29,0.46 0.59,0.61l3.97 2.03 3.18 -6.23 -3.97 -2.02c-0.29,-0.15 -0.56,-0.19 -0.81,-0.13 -0.25,0.06 -0.47,0.21 -0.66,0.47l-0.65 -0.33 2.26 -4.42 0.65 0.33c-0.12,0.35 -0.13,0.63 -0.03,0.87 0.1,0.23 0.3,0.41 0.6,0.55l9.28 4.72c0.31,0.16 0.55,0.22 0.74,0.18 0.2,-0.04 0.44,-0.22 0.74,-0.53l0.65 0.34 -2.26 4.41 -0.65 -0.33c0.08,-0.4 0.07,-0.7 -0.01,-0.89 -0.08,-0.18 -0.27,-0.35 -0.57,-0.5l-4.35 -2.23 -3.18 6.23 4.35 2.22c0.29,0.17 0.55,0.23 0.77,0.16 0.22,-0.06 0.45,-0.23 0.71,-0.52l0.65 0.32 -2.27 4.45 -0.65 -0.34c0.06,-0.38 0.06,-0.67 -0.02,-0.87 -0.07,-0.19 -0.26,-0.37 -0.56,-0.52l-9.28 -4.74c-0.29,-0.15 -0.56,-0.19 -0.82,-0.12 -0.25,0.08 -0.47,0.23 -0.65,0.46l-0.65 -0.32 2.27 -4.45z"/>
   <path class="fil0" d="M35.98 50.09l1.01 0c0.07,1.34 -0.01,2.46 -0.25,3.39 -0.24,0.92 -0.64,1.74 -1.21,2.47 -1.27,1.65 -2.86,2.56 -4.77,2.72 -1.91,0.16 -3.7,-0.4 -5.37,-1.7 -1.67,-1.28 -2.67,-2.85 -2.96,-4.68 -0.29,-1.83 0.14,-3.5 1.3,-4.99 0.24,-0.32 0.49,-0.61 0.74,-0.85 0.25,-0.24 0.53,-0.49 0.86,-0.73 0.29,-0.2 0.5,-0.36 0.65,-0.49 0.15,-0.13 0.27,-0.27 0.36,-0.4 0.04,-0.03 0.08,-0.08 0.1,-0.17 0.01,-0.08 0.02,-0.18 0.02,-0.32 0.01,-0.02 0.01,-0.05 0,-0.1 -0.01,-0.04 -0.01,-0.07 -0.02,-0.11l0.45 -0.57 2.64 2.04 -0.44 0.57c-0.73,-0.22 -1.5,-0.19 -2.31,0.09 -0.82,0.28 -1.49,0.75 -2.01,1.44 -0.06,0.1 -0.12,0.21 -0.19,0.31 -0.07,0.11 -0.13,0.24 -0.19,0.38 -0.41,1 -0.39,1.95 0.08,2.87 0.47,0.91 1.51,1.99 3.15,3.23 1.56,1.21 2.91,1.82 4.06,1.83 1.14,0 2.17,-0.58 3.08,-1.76 0.42,-0.54 0.73,-1.18 0.94,-1.9 0.2,-0.71 0.3,-1.57 0.28,-2.57z"/>
   <path class="fil0" d="M39.45 40.38l4.25 4.58 0.91 -0.85c0.76,-0.68 1.11,-1.36 1.08,-2.05 -0.04,-0.68 -0.39,-1.39 -1.05,-2.1 -0.72,-0.77 -1.42,-1.2 -2.12,-1.28 -0.71,-0.09 -1.43,0.2 -2.17,0.87l-0.9 0.83zm-3.95 -5.7l0.49 0.53c-0.21,0.28 -0.31,0.55 -0.29,0.81 0.02,0.26 0.18,0.54 0.48,0.84l2.54 2.74 1.31 -1.22c1.36,-1.26 2.64,-1.92 3.84,-2 1.2,-0.07 2.23,0.35 3.09,1.29 0.81,0.86 1.17,1.88 1.08,3.07 -0.08,1.18 -0.69,2.3 -1.83,3.36l-4.71 4.37 -0.49 -0.54c0.22,-0.24 0.32,-0.5 0.29,-0.77 -0.03,-0.26 -0.19,-0.56 -0.47,-0.89l-6.85 -7.36c-0.29,-0.32 -0.57,-0.5 -0.83,-0.53 -0.25,-0.04 -0.51,0.03 -0.8,0.22l-0.49 -0.54 3.64 -3.38z"/>
   <path class="fil0" d="M45.1 26.37l4.15 -2.73 0.4 0.62c-0.24,0.24 -0.38,0.48 -0.41,0.73 -0.04,0.25 0.04,0.51 0.23,0.77l1.99 3.03c0.64,-0.39 1.07,-0.89 1.29,-1.5 0.22,-0.61 0.24,-1.37 0.06,-2.27 -0.31,-1.51 -0.37,-2.56 -0.19,-3.15 0.19,-0.6 0.62,-1.11 1.28,-1.54 0.2,-0.14 0.4,-0.25 0.61,-0.34 0.2,-0.09 0.39,-0.17 0.58,-0.23l1.79 2.74 -0.6 0.39c-0.18,-0.14 -0.37,-0.23 -0.57,-0.23 -0.21,-0.02 -0.39,0.03 -0.55,0.13 -0.18,0.12 -0.31,0.29 -0.4,0.5 -0.09,0.21 -0.15,0.51 -0.18,0.88 -0.11,1.49 -0.23,2.39 -0.37,2.75 -0.13,0.33 -0.33,0.68 -0.59,1.01l0.08 0.12c0.31,-0.14 0.64,-0.27 0.99,-0.39 0.35,-0.13 0.68,-0.23 0.99,-0.28 0.69,-0.12 1.33,-0.07 1.92,0.15 0.59,0.22 1.29,0.7 2.09,1.43 0.65,0.62 1.03,0.98 1.13,1.07 0.11,0.08 0.21,0.14 0.29,0.19 0.35,0.23 0.72,0.35 1.13,0.37 0.4,0.03 0.77,-0.06 1.1,-0.24l0.43 0.66c-0.16,0.22 -0.33,0.42 -0.53,0.61 -0.19,0.17 -0.4,0.35 -0.64,0.5 -0.62,0.41 -1.24,0.66 -1.86,0.73 -0.62,0.07 -1.21,-0.02 -1.75,-0.3 -0.2,-0.07 -0.38,-0.18 -0.55,-0.3 -0.17,-0.13 -0.61,-0.55 -1.33,-1.28 -0.68,-0.67 -1.22,-1.12 -1.63,-1.36 -0.4,-0.24 -0.82,-0.4 -1.24,-0.46 -0.38,-0.04 -0.76,-0.02 -1.15,0.07 -0.38,0.09 -0.72,0.24 -1.04,0.48l3.14 4.77c0.19,0.28 0.4,0.46 0.64,0.53 0.23,0.06 0.5,0.04 0.81,-0.11l0.41 0.61 -4.16 2.73 -0.39 -0.6c0.24,-0.22 0.38,-0.45 0.41,-0.71 0.03,-0.25 -0.05,-0.52 -0.23,-0.8l-5.73 -8.71c-0.19,-0.27 -0.4,-0.44 -0.64,-0.51 -0.24,-0.08 -0.51,-0.04 -0.81,0.09l-0.4 -0.62z"/>
   <path class="fil0" d="M62.08 15.92l4.61 -1.92 0.28 0.68c-0.34,0.3 -0.54,0.54 -0.58,0.73 -0.06,0.19 -0.02,0.43 0.1,0.72l2.9 7 0.09 -0.03 3.29 -8.56 -0.36 -0.87c-0.12,-0.28 -0.29,-0.48 -0.52,-0.6 -0.23,-0.12 -0.51,-0.14 -0.85,-0.08l-0.28 -0.67 4.61 -1.91 0.28 0.67c-0.28,0.17 -0.47,0.38 -0.54,0.63 -0.08,0.25 -0.05,0.51 0.08,0.81l3.98 9.63c0.13,0.32 0.31,0.53 0.54,0.65 0.22,0.12 0.49,0.13 0.81,0.04l0.29 0.68 -4.62 1.9 -0.27 -0.67c0.26,-0.16 0.45,-0.36 0.54,-0.6 0.1,-0.24 0.07,-0.53 -0.06,-0.86l-2.96 -7.13 -0.09 0.04 -3.27 8.58 0.4 0.97c0.11,0.31 0.28,0.52 0.51,0.64 0.23,0.11 0.51,0.13 0.86,0.05l0.28 0.67 -4.61 1.91 -0.28 -0.68c0.28,-0.16 0.46,-0.36 0.54,-0.6 0.08,-0.25 0.05,-0.53 -0.07,-0.84l-3.99 -9.62c-0.14,-0.3 -0.32,-0.5 -0.55,-0.62 -0.21,-0.12 -0.48,-0.14 -0.8,-0.08l-0.29 -0.66z"/>
   <path class="fil0" d="M88.75 3.93c0.91,-0.18 1.65,-0.48 2.2,-0.9 0.55,-0.42 0.79,-0.78 0.73,-1.1 -0.02,-0.1 -0.07,-0.17 -0.15,-0.23 -0.07,-0.05 -0.17,-0.06 -0.27,-0.04 -0.07,0.01 -0.14,0.04 -0.2,0.09 -0.07,0.03 -0.17,0.1 -0.32,0.2 -0.31,0.22 -0.61,0.3 -0.89,0.21 -0.29,-0.08 -0.46,-0.25 -0.51,-0.52 -0.05,-0.25 0.01,-0.48 0.18,-0.69 0.17,-0.2 0.43,-0.33 0.79,-0.4 0.51,-0.11 0.97,-0.04 1.37,0.18 0.4,0.22 0.65,0.57 0.74,1.03 0.15,0.77 -0.1,1.53 -0.77,2.28 -0.67,0.76 -1.55,1.23 -2.62,1.45 -1.09,0.21 -2.08,0.1 -2.99,-0.35 -0.9,-0.44 -1.42,-1.04 -1.56,-1.82 -0.1,-0.46 -0.01,-0.87 0.28,-1.23 0.29,-0.35 0.7,-0.59 1.22,-0.69 0.34,-0.06 0.63,-0.02 0.88,0.1 0.24,0.11 0.38,0.3 0.43,0.55 0.04,0.26 -0.05,0.49 -0.29,0.68 -0.24,0.18 -0.54,0.22 -0.89,0.13 -0.19,-0.03 -0.32,-0.06 -0.39,-0.07 -0.08,-0.01 -0.14,-0.01 -0.2,0 -0.12,0.02 -0.2,0.07 -0.26,0.15 -0.05,0.08 -0.06,0.17 -0.03,0.26 0.06,0.36 0.44,0.61 1.16,0.76 0.72,0.15 1.5,0.14 2.36,-0.03zm-6.53 4.4l4.89 -0.96 0.15 0.72c-0.4,0.22 -0.64,0.43 -0.72,0.6 -0.09,0.18 -0.11,0.42 -0.04,0.72l1.46 7.44 0.1 -0.02 4.9 -7.74 -0.17 -0.91c-0.07,-0.31 -0.19,-0.54 -0.4,-0.7 -0.2,-0.16 -0.47,-0.24 -0.81,-0.24l-0.14 -0.72 4.89 -0.97 0.14 0.72c-0.32,0.12 -0.53,0.29 -0.66,0.52 -0.11,0.22 -0.14,0.49 -0.08,0.81l2.02 10.22c0.06,0.32 0.19,0.58 0.39,0.74 0.19,0.16 0.45,0.22 0.79,0.2l0.14 0.72 -4.89 0.96 -0.14 -0.72c0.29,-0.09 0.51,-0.25 0.65,-0.48 0.14,-0.21 0.17,-0.49 0.11,-0.84l-1.5 -7.58 -0.09 0.02 -4.91 7.76 0.21 1.04c0.05,0.32 0.17,0.56 0.38,0.72 0.2,0.16 0.48,0.23 0.82,0.22l0.14 0.71 -4.89 0.97 -0.14 -0.71c0.31,-0.11 0.52,-0.27 0.65,-0.5 0.13,-0.22 0.16,-0.5 0.09,-0.83l-2.01 -10.22c-0.08,-0.32 -0.21,-0.56 -0.41,-0.72 -0.19,-0.17 -0.45,-0.24 -0.78,-0.23l-0.14 -0.72z"/>
   <path class="fil0" d="M124.5 5.61l4.88 0.93 -0.13 0.71c-0.35,0.01 -0.61,0.08 -0.82,0.24 -0.2,0.15 -0.32,0.39 -0.37,0.71l-0.68 3.57c0.73,0.16 1.39,0.1 1.98,-0.18 0.58,-0.29 1.13,-0.82 1.62,-1.59 0.82,-1.3 1.51,-2.1 2.06,-2.39 0.56,-0.3 1.22,-0.37 1.99,-0.22 0.23,0.04 0.46,0.1 0.67,0.18 0.21,0.07 0.4,0.16 0.57,0.25l-0.61 3.2 -0.71 -0.14c-0.02,-0.22 -0.1,-0.41 -0.24,-0.57 -0.15,-0.15 -0.31,-0.23 -0.49,-0.27 -0.21,-0.04 -0.42,-0.01 -0.64,0.07 -0.21,0.1 -0.46,0.27 -0.74,0.52 -1.11,0.98 -1.84,1.55 -2.17,1.7 -0.33,0.16 -0.71,0.27 -1.13,0.32l-0.03 0.14c0.32,0.13 0.65,0.26 0.98,0.41 0.34,0.16 0.65,0.32 0.91,0.49 0.58,0.4 1,0.88 1.27,1.45 0.28,0.57 0.44,1.4 0.51,2.48 0.03,0.9 0.06,1.42 0.07,1.55 0.02,0.13 0.04,0.25 0.08,0.33 0.08,0.41 0.27,0.76 0.54,1.06 0.28,0.3 0.59,0.5 0.96,0.6l-0.15 0.77c-0.27,0.05 -0.53,0.07 -0.8,0.07 -0.26,0 -0.53,-0.03 -0.81,-0.08 -0.73,-0.14 -1.35,-0.41 -1.85,-0.78 -0.5,-0.38 -0.85,-0.85 -1.05,-1.43 -0.09,-0.2 -0.15,-0.4 -0.18,-0.61 -0.04,-0.2 -0.06,-0.81 -0.07,-1.83 -0.02,-0.96 -0.09,-1.67 -0.22,-2.12 -0.12,-0.46 -0.31,-0.85 -0.58,-1.19 -0.24,-0.3 -0.52,-0.54 -0.86,-0.74 -0.34,-0.21 -0.69,-0.34 -1.08,-0.4l-1.07 5.62c-0.06,0.33 -0.04,0.6 0.09,0.82 0.12,0.22 0.34,0.38 0.66,0.5l-0.14 0.71 -4.88 -0.93 0.13 -0.72c0.33,0.03 0.59,-0.05 0.79,-0.2 0.2,-0.16 0.33,-0.41 0.4,-0.75l1.95 -10.23c0.05,-0.32 0.01,-0.59 -0.11,-0.82 -0.12,-0.22 -0.33,-0.38 -0.64,-0.5l0.14 -0.71z"/>
   <path class="fil0" d="M146.67 14.97l-4.35 4.29 -0.03 0.07 4.87 1.84 0.02 -0.05 -0.44 -6.12 -0.07 -0.03zm-9.57 6.87c0.29,0.01 0.61,-0.06 0.93,-0.23 0.33,-0.17 0.66,-0.41 0.99,-0.72l6.85 -6.66c0.14,-0.14 0.26,-0.29 0.36,-0.46 0.1,-0.18 0.2,-0.38 0.3,-0.61 0.07,-0.15 0.02,-0.29 -0.13,-0.42 -0.14,-0.13 -0.34,-0.22 -0.6,-0.29l0.26 -0.69c0.52,0.16 1.02,0.22 1.48,0.21 0.45,-0.02 0.88,-0.14 1.27,-0.33l0.67 0.25 0.97 12.25c0.05,0.79 0.14,1.44 0.26,1.93 0.12,0.49 0.32,0.87 0.59,1.14l-0.26 0.68 -5.36 -2.03 0.26 -0.68c0.3,0.13 0.58,0.12 0.86,-0.02 0.27,-0.15 0.47,-0.37 0.58,-0.67 0.02,-0.06 0.04,-0.15 0.04,-0.3 0,-0.14 0.01,-0.26 0.02,-0.35l-0.12 -1.45 -5.97 -2.27 -0.91 0.94c-0.46,0.46 -0.65,0.86 -0.57,1.21 0.09,0.34 0.39,0.65 0.9,0.95l-0.26 0.69 -3.66 -1.39 0.25 -0.68z"/>
   <path class="fil0" d="M158.09 15.25l0.7 0.39c0.09,0.18 0.22,0.33 0.37,0.46 0.15,0.13 0.35,0.28 0.6,0.42l7.97 4.47c0.21,0.13 0.42,0.23 0.61,0.29 0.2,0.06 0.42,0.09 0.66,0.1l0.68 0.38 -1.78 3.18 -0.64 -0.35c0.07,-0.83 -0.02,-1.54 -0.28,-2.13 -0.26,-0.58 -0.69,-1.05 -1.3,-1.39l-1.15 -0.65 -5.54 9.87c-0.18,0.28 -0.24,0.54 -0.19,0.76 0.05,0.23 0.22,0.47 0.5,0.74l-0.36 0.63 -4.35 -2.44 0.36 -0.64c0.41,0.09 0.7,0.1 0.89,0.03 0.19,-0.07 0.36,-0.26 0.53,-0.56l5.54 -9.85 -0.97 -0.56c-0.74,-0.41 -1.43,-0.59 -2.09,-0.53 -0.65,0.06 -1.3,0.37 -1.92,0.92l-0.63 -0.36 1.79 -3.18z"/>
   <path class="fil0" d="M177.58 29.15c-1.1,-0.85 -2.17,-1.06 -3.23,-0.63 -1.05,0.43 -2.26,1.51 -3.6,3.24 -1.36,1.7 -2.12,3.11 -2.29,4.23 -0.17,1.1 0.28,2.1 1.37,2.95 1.08,0.86 2.14,1.07 3.19,0.65 1.05,-0.41 2.25,-1.49 3.6,-3.19 1.36,-1.71 2.13,-3.14 2.3,-4.26 0.18,-1.13 -0.27,-2.12 -1.34,-2.99zm0.67 -0.84c1.57,1.24 2.44,2.84 2.62,4.8 0.18,1.97 -0.37,3.74 -1.64,5.35 -1.26,1.6 -2.86,2.52 -4.78,2.81 -1.93,0.27 -3.69,-0.23 -5.28,-1.49 -1.61,-1.26 -2.49,-2.87 -2.66,-4.8 -0.17,-1.94 0.37,-3.69 1.63,-5.29 1.27,-1.62 2.87,-2.56 4.81,-2.83 1.94,-0.28 3.71,0.21 5.3,1.45z"/>
   <path class="fil0" d="M188.85 38.14l3.2 3.47 -6.02 11.03c-0.31,0.57 -0.49,0.98 -0.5,1.23 -0.01,0.25 0.06,0.5 0.22,0.76l-0.55 0.49 -2.52 -2.74 5.38 -9.84 -0.16 -0.17c-1.18,0.7 -2.46,1.41 -3.84,2.14 -1.39,0.74 -2.48,1.25 -3.27,1.55 -1.11,0.43 -2,0.64 -2.67,0.64 -0.67,-0.01 -1.24,-0.28 -1.73,-0.81 -0.36,-0.39 -0.54,-0.8 -0.54,-1.21 0,-0.42 0.16,-0.77 0.47,-1.05 0.25,-0.24 0.56,-0.36 0.91,-0.37 0.36,0 0.67,0.14 0.93,0.43 0.06,0.06 0.11,0.13 0.16,0.22 0.04,0.09 0.1,0.2 0.15,0.32 0.15,0.42 0.24,0.65 0.26,0.68 0.02,0.04 0.05,0.07 0.08,0.11 0.22,0.24 0.6,0.28 1.15,0.14 0.55,-0.14 1.54,-0.56 2.97,-1.24 1.29,-0.63 2.43,-1.23 3.4,-1.77 0.97,-0.55 1.65,-1.01 2.05,-1.37 0.33,-0.31 0.5,-0.62 0.52,-0.96 0.01,-0.34 -0.11,-0.65 -0.36,-0.93l-0.23 -0.25 0.54 -0.5z"/>
   <path class="fil0" d="M199.34 50.33l2.66 4.22 -0.61 0.39c-0.36,-0.29 -0.63,-0.43 -0.83,-0.46 -0.2,-0.01 -0.42,0.06 -0.68,0.23l-6.42 4.04 0.05 0.08 8.99 1.8 0.79 -0.5c0.27,-0.17 0.43,-0.38 0.51,-0.62 0.08,-0.24 0.06,-0.52 -0.06,-0.84l0.61 -0.4 2.66 4.22 -0.62 0.4c-0.22,-0.25 -0.46,-0.4 -0.71,-0.43 -0.25,-0.03 -0.51,0.04 -0.79,0.21l-8.81 5.56c-0.29,0.18 -0.47,0.38 -0.55,0.62 -0.08,0.24 -0.05,0.52 0.1,0.82l-0.63 0.39 -2.66 -4.22 0.62 -0.39c0.2,0.24 0.43,0.38 0.69,0.43 0.25,0.05 0.53,-0.01 0.83,-0.2l6.53 -4.11 -0.05 -0.09 -9.01 -1.78 -0.89 0.56c-0.29,0.17 -0.46,0.37 -0.54,0.61 -0.08,0.25 -0.04,0.52 0.09,0.85l-0.61 0.39 -2.66 -4.22 0.61 -0.39c0.21,0.25 0.44,0.39 0.7,0.43 0.25,0.04 0.52,-0.04 0.8,-0.21l8.82 -5.56c0.27,-0.18 0.44,-0.39 0.52,-0.64 0.08,-0.23 0.06,-0.5 -0.06,-0.8l0.61 -0.39z"/>
   <path class="fil0" d="M209.96 68.36l1.83 4.64 -0.67 0.27c-0.17,-0.27 -0.37,-0.45 -0.62,-0.55 -0.25,-0.09 -0.52,-0.07 -0.82,0.05l-10.44 4.14 2.18 5.5 10.44 -4.12c0.29,-0.11 0.49,-0.29 0.61,-0.51 0.12,-0.23 0.16,-0.51 0.1,-0.84l0.68 -0.27 1.83 4.63 -0.68 0.27c-0.18,-0.29 -0.38,-0.47 -0.62,-0.55 -0.24,-0.08 -0.51,-0.06 -0.82,0.07l-9.52 3.76c-0.26,0.1 -0.46,0.21 -0.58,0.33 -0.13,0.11 -0.25,0.34 -0.35,0.67 -0.18,0.5 -0.38,0.89 -0.61,1.16 -0.22,0.27 -0.52,0.49 -0.86,0.62 -0.76,0.3 -1.55,0.23 -2.37,-0.21 -0.82,-0.45 -1.42,-1.14 -1.79,-2.09 -0.13,-0.32 -0.24,-0.7 -0.32,-1.14 -0.09,-0.44 -0.16,-0.91 -0.21,-1.4 -0.02,-0.28 -0.04,-0.56 -0.04,-0.83 -0.01,-0.27 -0.01,-0.69 0,-1.25 0.02,-0.55 0,-1.05 -0.04,-1.5 -0.05,-0.45 -0.12,-0.79 -0.21,-1.03 -0.07,-0.17 -0.15,-0.29 -0.26,-0.36 -0.09,-0.07 -0.19,-0.08 -0.3,-0.04 -0.06,0.01 -0.11,0.04 -0.13,0.1 -0.02,0.05 -0.02,0.12 0.01,0.21l0.12 0.23 -0.01 0.02c0.04,0.16 0.04,0.3 -0.02,0.43 -0.05,0.13 -0.16,0.23 -0.33,0.29 -0.18,0.07 -0.35,0.06 -0.54,-0.04 -0.18,-0.1 -0.33,-0.27 -0.44,-0.5 -0.11,-0.28 -0.1,-0.55 0.05,-0.8 0.14,-0.25 0.35,-0.43 0.64,-0.54 0.59,-0.24 1.19,-0.12 1.78,0.35 0.59,0.48 1.05,1.18 1.37,2.08 0.16,0.45 0.29,0.96 0.37,1.51 0.09,0.54 0.15,1.22 0.17,2.03 0.06,1.18 0.11,1.89 0.14,2.11 0.03,0.22 0.08,0.43 0.16,0.61 0.14,0.37 0.37,0.62 0.69,0.79 0.31,0.15 0.64,0.17 0.98,0.03 0.38,-0.14 0.62,-0.4 0.74,-0.78 0.11,-0.37 0.09,-0.75 -0.06,-1.14l-4.43 -11.2 0.68 -0.26c0.13,0.26 0.33,0.44 0.58,0.55 0.25,0.1 0.54,0.08 0.86,-0.04l9.69 -3.83c0.31,-0.14 0.53,-0.34 0.65,-0.59 0.12,-0.24 0.14,-0.5 0.06,-0.77l0.68 -0.27z"/>
   <path class="fil0" d="M210.93 92.93l-6.11 1.26 0.25 1.21c0.19,1 0.59,1.66 1.19,1.98 0.61,0.33 1.39,0.39 2.34,0.2 1.03,-0.22 1.77,-0.6 2.2,-1.15 0.44,-0.56 0.57,-1.32 0.37,-2.31l-0.24 -1.19zm6.93 -0.44l-0.72 0.15c-0.12,-0.33 -0.3,-0.55 -0.53,-0.67 -0.23,-0.11 -0.55,-0.12 -0.98,-0.03l-3.65 0.76 0.36 1.75c0.38,1.82 0.29,3.26 -0.27,4.32 -0.56,1.07 -1.46,1.73 -2.71,1.98 -1.15,0.24 -2.21,0.01 -3.18,-0.67 -0.97,-0.69 -1.61,-1.78 -1.93,-3.3l-1.3 -6.3 0.72 -0.15c0.09,0.32 0.26,0.54 0.5,0.65 0.25,0.12 0.58,0.14 1.01,0.06l9.85 -2.03c0.42,-0.09 0.71,-0.23 0.88,-0.43 0.16,-0.2 0.24,-0.47 0.22,-0.8l0.72 -0.15 1.01 4.86z"/>
   <path class="fil0" d="M219.93 104.44l0.22 4.96 -0.73 0.03c-0.08,-0.33 -0.22,-0.58 -0.42,-0.74 -0.19,-0.15 -0.45,-0.22 -0.78,-0.19l-3.62 0.17c0.01,0.75 0.22,1.37 0.64,1.87 0.41,0.51 1.05,0.91 1.92,1.22 1.45,0.49 2.39,0.98 2.8,1.45 0.41,0.46 0.64,1.09 0.68,1.88 0,0.23 0,0.47 -0.03,0.69 -0.02,0.22 -0.05,0.43 -0.1,0.62l-3.26 0.14 -0.03 -0.72c0.21,-0.07 0.37,-0.2 0.49,-0.37 0.11,-0.18 0.17,-0.35 0.16,-0.54 -0.01,-0.22 -0.09,-0.42 -0.22,-0.6 -0.15,-0.19 -0.36,-0.39 -0.67,-0.6 -1.22,-0.85 -1.94,-1.43 -2.17,-1.71 -0.23,-0.3 -0.42,-0.64 -0.57,-1.04l-0.15 0.01c-0.03,0.34 -0.09,0.68 -0.16,1.05 -0.08,0.37 -0.16,0.7 -0.27,1 -0.26,0.65 -0.63,1.17 -1.12,1.57 -0.49,0.39 -1.25,0.75 -2.29,1.06 -0.87,0.25 -1.37,0.39 -1.49,0.43 -0.13,0.05 -0.23,0.1 -0.31,0.15 -0.37,0.19 -0.67,0.45 -0.9,0.78 -0.23,0.33 -0.35,0.7 -0.36,1.07l-0.79 0.04c-0.1,-0.26 -0.18,-0.51 -0.24,-0.77 -0.07,-0.25 -0.1,-0.53 -0.11,-0.8 -0.04,-0.75 0.08,-1.41 0.33,-1.98 0.25,-0.58 0.63,-1.03 1.14,-1.35 0.17,-0.14 0.35,-0.24 0.55,-0.32 0.18,-0.09 0.78,-0.25 1.77,-0.5 0.92,-0.23 1.59,-0.47 2.01,-0.69 0.41,-0.23 0.75,-0.51 1.02,-0.84 0.23,-0.31 0.41,-0.65 0.52,-1.02 0.13,-0.38 0.17,-0.75 0.14,-1.14l-5.72 0.26c-0.33,0.01 -0.59,0.1 -0.77,0.28 -0.18,0.17 -0.3,0.42 -0.33,0.75l-0.73 0.03 -0.22 -4.96 0.72 -0.03c0.06,0.32 0.19,0.56 0.39,0.71 0.21,0.16 0.48,0.23 0.81,0.21l10.41 -0.46c0.32,-0.03 0.58,-0.13 0.77,-0.3 0.19,-0.17 0.3,-0.41 0.34,-0.73l0.73 -0.03z"/>
   <path class="fil0" d="M220.39 122.54l-0.6 4.95 -0.73 -0.09c-0.09,-0.45 -0.21,-0.73 -0.35,-0.87 -0.14,-0.14 -0.36,-0.23 -0.67,-0.27l-7.53 -0.9 -0.02 0.1 5.86 7.06 0.92 0.11c0.31,0.03 0.57,-0.02 0.79,-0.16 0.21,-0.15 0.37,-0.37 0.48,-0.69l0.72 0.08 -0.6 4.95 -0.72 -0.09c-0.01,-0.33 -0.11,-0.6 -0.28,-0.78 -0.18,-0.18 -0.43,-0.29 -0.75,-0.33l-10.34 -1.25c-0.34,-0.04 -0.61,0.01 -0.82,0.14 -0.23,0.15 -0.37,0.38 -0.45,0.7l-0.72 -0.08 0.59 -4.95 0.73 0.08c0,0.31 0.09,0.57 0.25,0.77 0.17,0.2 0.43,0.32 0.78,0.36l7.67 0.92 0.01 -0.09 -5.87 -7.07 -1.04 -0.12c-0.33,-0.05 -0.6,-0.01 -0.81,0.13 -0.21,0.15 -0.37,0.39 -0.46,0.73l-0.73 -0.09 0.6 -4.95 0.72 0.08c0,0.32 0.09,0.58 0.27,0.77 0.17,0.19 0.43,0.31 0.76,0.35l10.35 1.24c0.32,0.03 0.59,-0.03 0.8,-0.16 0.22,-0.14 0.37,-0.36 0.46,-0.67l0.73 0.09z"/>
   <path class="fil0" d="M218.23 150.35c-0.27,0.89 -0.36,1.68 -0.26,2.36 0.11,0.68 0.32,1.07 0.63,1.17 0.09,0.03 0.18,0.02 0.26,-0.02 0.09,-0.05 0.15,-0.12 0.18,-0.23 0.02,-0.05 0.03,-0.13 0.02,-0.2 -0.01,-0.08 -0.01,-0.21 -0.03,-0.38 -0.05,-0.39 0.02,-0.68 0.23,-0.9 0.21,-0.21 0.44,-0.28 0.7,-0.2 0.25,0.08 0.42,0.24 0.52,0.49 0.1,0.24 0.1,0.54 -0.01,0.88 -0.16,0.5 -0.43,0.88 -0.81,1.12 -0.39,0.26 -0.81,0.31 -1.26,0.17 -0.75,-0.23 -1.3,-0.82 -1.64,-1.76 -0.35,-0.95 -0.36,-1.95 -0.03,-2.99 0.32,-1.06 0.9,-1.89 1.72,-2.46 0.81,-0.59 1.6,-0.76 2.34,-0.51 0.45,0.12 0.77,0.39 0.95,0.83 0.19,0.42 0.19,0.88 0.04,1.4 -0.12,0.32 -0.29,0.57 -0.5,0.72 -0.23,0.16 -0.46,0.2 -0.7,0.12 -0.25,-0.1 -0.4,-0.29 -0.45,-0.58 -0.06,-0.29 0.05,-0.57 0.3,-0.85 0.11,-0.15 0.2,-0.25 0.24,-0.31 0.05,-0.07 0.08,-0.12 0.1,-0.17 0.04,-0.11 0.03,-0.22 -0.02,-0.3 -0.04,-0.09 -0.11,-0.13 -0.2,-0.15 -0.35,-0.11 -0.76,0.1 -1.23,0.66 -0.47,0.56 -0.83,1.26 -1.09,2.09zm-0.78 -7.84l-1.47 4.77 -0.7 -0.22c-0.01,-0.45 -0.08,-0.75 -0.19,-0.91 -0.12,-0.17 -0.32,-0.3 -0.62,-0.39l-7.24 -2.24 -0.03 0.09 4.48 8 0.9 0.27c0.29,0.1 0.56,0.09 0.8,-0.01 0.24,-0.1 0.43,-0.3 0.6,-0.6l0.7 0.21 -1.48 4.77 -0.7 -0.22c0.05,-0.33 0.01,-0.6 -0.14,-0.82 -0.14,-0.2 -0.36,-0.36 -0.67,-0.46l-9.96 -3.08c-0.32,-0.1 -0.6,-0.11 -0.83,-0.01 -0.23,0.1 -0.42,0.3 -0.56,0.61l-0.7 -0.22 1.48 -4.77 0.7 0.22c-0.06,0.31 -0.02,0.57 0.11,0.8 0.13,0.23 0.36,0.39 0.7,0.51l7.37 2.28 0.03 -0.09 -4.5 -8.01 -1.01 -0.31c-0.31,-0.11 -0.58,-0.11 -0.81,-0.01 -0.24,0.1 -0.43,0.31 -0.59,0.63l-0.7 -0.22 1.48 -4.76 0.7 0.21c-0.06,0.32 -0.02,0.59 0.12,0.81 0.14,0.21 0.37,0.37 0.69,0.47l9.95 3.08c0.31,0.09 0.59,0.08 0.82,-0.02 0.23,-0.08 0.43,-0.28 0.58,-0.57l0.69 0.21z"/>
   <polygon class="fil0" points="272.88,224.64 269.27,224.64 269.27,6.09 272.88,6.09 "/>
   <path class="fil1" d="M561.75 149.36c-6.06,0 -10.97,4.91 -10.97,10.97 0,6.06 4.91,10.97 10.97,10.97 6.06,0 10.98,-4.91 10.98,-10.97 0,-6.06 -4.92,-10.97 -10.98,-10.97z"/>
   <path class="fil2" d="M538.91 138.14c-1.25,-0.85 -2.96,-0.53 -3.81,0.72l-9.04 13.61 -9.05 -13.61c-0.85,-1.25 -2.56,-1.57 -3.81,-0.72 -1.25,0.85 -1.58,2.55 -0.72,3.8l10.83 15.93 0 10.45c0,1.52 1.23,2.74 2.75,2.74 1.51,0 2.74,-1.22 2.74,-2.74l0 -10.45 10.83 -15.93c0.85,-1.25 0.53,-2.95 -0.72,-3.8z"/>
   <path class="fil2" d="M420.49 140.64c0,0 0.01,14.22 0.01,18.03 0,7.6 6.51,12.71 14.01,12.71l0 0 0 0c7.48,0 14,-5.09 14,-12.71 0,-1.57 0.01,-18.03 0.01,-18.03 0,-1.51 -1.23,-2.74 -2.74,-2.74 -1.51,0 -2.74,1.22 -2.74,2.74 0,0 -0.01,14.35 -0.01,18.55 0,3.57 -3.77,6.7 -8.52,6.7 -5.12,0 -8.53,-3.49 -8.53,-6.76 0,-4.2 -0.01,-18.49 -0.01,-18.49 0,-1.52 -1.23,-2.74 -2.74,-2.74 -1.51,0 -2.74,1.23 -2.74,2.74z"/>
   <path class="fil2" d="M367.97 61.21c0,-1.02 0.01,-4.13 5.55,-4.17l3.23 -0.03 0.09 0c4.66,0 6.35,2.72 6.37,5.27 0.01,1.48 -0.54,2.82 -1.56,3.79 -1.28,1.21 -3.28,1.86 -5.78,1.87l-7.86 0.06c-0.03,-2.94 -0.05,-5.53 -0.04,-6.79zm-2.57 23.57l0.02 0c1.52,-0.02 2.73,-1.26 2.72,-2.77 0,-0.08 -0.09,-8.53 -0.09,-8.53l7.86 -0.05c3.92,-0.03 7.21,-1.2 9.51,-3.38 2.13,-2.02 3.3,-4.8 3.27,-7.82 -0.04,-5.16 -3.77,-10.7 -11.85,-10.7l-0.13 0 -3.23 0.03c-6.77,0.05 -10.98,3.74 -10.99,9.64 -0.02,3.95 0.16,20.18 0.16,20.87 0.02,1.5 1.24,2.71 2.75,2.71z"/>
   <path class="fil2" d="M488.75 84.58l10.15 0c1.51,0 2.74,-1.23 2.74,-2.74 0,-1.52 -1.23,-2.75 -2.74,-2.75l-10.15 0c-5.55,0 -5.59,-3.1 -5.6,-4.13 -0.01,-0.93 -0.01,-2.59 -0.01,-4.58l13.18 0c1.51,0 2.74,-1.23 2.74,-2.74 0,-1.52 -1.23,-2.75 -2.74,-2.75l-13.18 0c0,-2.97 0,-5.94 0.01,-7.99l15.75 0c1.51,0 2.74,-1.23 2.74,-2.74 0,-1.52 -1.23,-2.75 -2.74,-2.75l-18.49 0c-1.51,0 -2.73,1.23 -2.74,2.74 0,0.69 -0.04,16.92 0,20.87 0.06,5.89 4.31,9.56 11.08,9.56z"/>
   <path class="fil2" d="M334.99 143.39l8.9 0c1.52,0 2.74,-1.23 2.74,-2.74 0,-1.52 -1.22,-2.75 -2.74,-2.75l-8.9 0c-6.77,0 -11.01,3.67 -11.08,9.56 -0.04,3.95 0,20.18 0,20.87 0.01,1.51 1.23,2.74 2.74,2.74l0.01 0c1.52,-0.01 2.74,-1.24 2.74,-2.75 0,-0.1 -0.02,-5.8 -0.02,-11.32l12.87 0c1.51,0 2.74,-1.22 2.74,-2.74 0,-1.51 -1.23,-2.74 -2.74,-2.74l-12.87 0c0,-1.73 0.01,-3.16 0.02,-4 0,-1.02 0.04,-4.13 5.59,-4.13z"/>
   <path class="fil2" d="M402 60.96c0.01,-1.02 0.01,-4.13 5.55,-4.17l3.23 -0.02 0.09 0c4.67,0 6.36,2.71 6.38,5.26 0.01,1 -0.24,2.44 -1.44,3.66 -1.27,1.29 -3.31,1.99 -5.9,2.01l-7.87 0.05c-0.02,-2.94 -0.04,-5.53 -0.04,-6.79zm-2.57 23.57l0.03 0c1.51,-0.02 2.73,-1.25 2.71,-2.77 0,-0.08 -0.08,-8.53 -0.08,-8.53l7.86 -0.05c5.15,-0.04 8.15,-2 9.77,-3.64 1.96,-2 3.03,-4.68 3.01,-7.56 -0.04,-5.16 -3.77,-10.7 -11.86,-10.7l-0.12 0 -3.23 0.03c-6.77,0.05 -10.99,3.74 -11,9.64 -0.01,3.95 0.16,20.18 0.17,20.87 0.02,1.5 1.24,2.71 2.74,2.71z"/>
   <path class="fil2" d="M450.47 79.09l-9.06 0c-5.55,0 -5.58,-3.1 -5.59,-4.13 -0.04,-3.91 0,-20.63 0,-20.8 0,-1.51 -1.22,-2.74 -2.74,-2.74l0 0c-1.51,0 -2.74,1.22 -2.74,2.73 0,0.69 -0.04,16.92 0,20.87 0.06,5.9 4.3,9.56 11.07,9.56l9.06 0c1.51,0 2.74,-1.23 2.74,-2.74 0,-1.52 -1.23,-2.75 -2.74,-2.75z"/>
   <path class="fil2" d="M463.29 84.58c1.52,0 2.74,-1.23 2.74,-2.74l0 -27.68c0,-1.52 -1.22,-2.75 -2.74,-2.75 -1.51,0 -2.74,1.23 -2.74,2.75l0 27.68c0,1.51 1.23,2.74 2.74,2.74z"/>
   <path class="fil2" d="M407.04 127.79l7.26 0c1.51,0 2.74,-1.23 2.74,-2.74 0,-1.52 -1.23,-2.75 -2.74,-2.75l-7.26 0c-5.55,0 -5.58,-3.1 -5.59,-4.13 -0.01,-0.93 -0.02,-2.59 -0.02,-4.58l10.6 0c1.52,0 2.74,-1.23 2.74,-2.74 0,-1.52 -1.22,-2.74 -2.74,-2.74l-10.6 0c0,-2.98 0.01,-5.94 0.02,-8l12.85 0c1.51,0 2.74,-1.23 2.74,-2.74 0,-1.52 -1.23,-2.74 -2.74,-2.74l-15.59 0c-1.51,0 -2.74,1.22 -2.74,2.73 0,0.69 -0.04,16.92 0,20.87 0.06,5.89 4.3,9.56 11.07,9.56z"/>
   <path class="fil2" d="M383.73 94.63c-1.52,0 -2.74,1.23 -2.74,2.74l0 27.68c0,1.51 1.22,2.74 2.74,2.74 1.51,0 2.74,-1.23 2.74,-2.74l0 -27.68c0,-1.51 -1.23,-2.74 -2.74,-2.74z"/>
   <path class="fil2" d="M467.75 171.07l10.67 0c1.51,0 2.74,-1.23 2.74,-2.75 0,-1.51 -1.23,-2.74 -2.74,-2.74l-10.67 0c-5.55,0 -5.58,-3.11 -5.59,-4.13 -0.04,-3.91 0,-20.63 0,-20.8 0,-1.51 -1.22,-2.74 -2.74,-2.75l0 0c-1.51,0 -2.74,1.23 -2.75,2.74 0,0.69 -0.03,16.92 0,20.87 0.06,5.89 4.31,9.56 11.08,9.56z"/>
   <path class="fil2" d="M516.93 56.9l7.49 0c6.64,0 10.01,3.73 10.01,11.1 0,7.36 -3.37,11.09 -10.01,11.09l-7.49 0 0 -22.19zm-2.74 27.68l10.23 0c9.7,0 15.49,-6.2 15.49,-16.58 0,-10.39 -5.79,-16.59 -15.49,-16.59l-10.23 0c-1.52,0 -2.74,1.23 -2.74,2.74l0 27.68c0,1.52 1.22,2.75 2.74,2.75z"/>
   <path class="fil2" d="M493.18 171.07c1.51,0 2.74,-1.23 2.74,-2.75l0 -25.24 10.11 0c1.51,0 2.74,-1.23 2.74,-2.75 0,-1.51 -1.23,-2.74 -2.74,-2.74l-25.7 0c-1.52,0 -2.74,1.23 -2.74,2.74 0,1.52 1.22,2.75 2.74,2.75l10.11 0 0 25.24c0,1.52 1.23,2.75 2.74,2.75z"/>
   <path class="fil2" d="M337.35 58.95c0.81,-1.96 1.61,-1.96 1.95,-1.96 0.54,0 1.16,0 1.96,1.96 0.35,0.88 1.79,4.81 3.47,9.49l-10.85 0c1.69,-4.68 3.11,-8.61 3.47,-9.49zm-12.23 25.75c1.44,0.51 3.02,-0.24 3.54,-1.68 0.88,-2.48 2.04,-5.73 3.23,-9.04l14.83 0c1.19,3.31 2.35,6.56 3.23,9.04 0.41,1.13 1.47,1.84 2.61,1.84 0.31,0 0.62,-0.05 0.93,-0.16 1.44,-0.52 2.19,-2.1 1.68,-3.54 -0.32,-0.9 -7.82,-21.93 -8.79,-24.3 -1.46,-3.59 -3.84,-5.41 -7.08,-5.41 -1.81,0 -5.15,0.71 -7.07,5.41 -0.97,2.37 -8.47,23.4 -8.79,24.3 -0.51,1.44 0.24,3.02 1.68,3.54z"/>
   <path class="fil2" d="M366.14 100.1c1.88,0 3.59,0.71 3.59,0.71 1.4,0.6 3.01,-0.04 3.61,-1.43 0.59,-1.39 -0.05,-3.01 -1.44,-3.6 -0.27,-0.12 -2.77,-1.16 -5.76,-1.16 -9.7,0 -15.49,6.2 -15.49,16.58 0,10.38 5.79,16.58 15.49,16.58 2.99,0 5.49,-1.03 5.76,-1.15 1.39,-0.6 2.02,-2.2 1.44,-3.59 -0.6,-1.39 -2.2,-2.04 -3.59,-1.45 -0.02,0 -1.73,0.71 -3.61,0.71 -6.64,0 -10,-3.73 -10,-11.1 0,-7.36 3.36,-11.1 10,-11.1z"/>
   <path class="fil2" d="M475.13 127.78c2.99,0 5.49,-1.03 5.76,-1.15 1.39,-0.6 2.02,-2.2 1.44,-3.59 -0.6,-1.39 -2.2,-2.04 -3.59,-1.45 -0.02,0 -1.73,0.71 -3.61,0.71 -6.64,0 -10,-3.73 -10,-11.1 0,-7.36 3.36,-11.1 10,-11.1 1.88,0 3.59,0.71 3.59,0.71 1.39,0.6 3.01,-0.04 3.61,-1.43 0.59,-1.39 -0.05,-3.01 -1.44,-3.6 -0.27,-0.12 -2.77,-1.16 -5.76,-1.16 -9.7,0 -15.49,6.2 -15.49,16.58 0,10.38 5.79,16.58 15.49,16.58z"/>
   <path class="fil2" d="M403.84 171.06c4.16,0 7.74,-2 8.14,-2.23 1.3,-0.76 1.75,-2.43 1,-3.74 -0.75,-1.3 -2.43,-1.76 -3.74,-1.01 -0.03,0.02 -2.67,1.5 -5.4,1.5 -6.64,0 -10,-3.73 -10,-11.1 0,-7.36 3.36,-11.1 10,-11.1 2.75,0 5.37,1.49 5.38,1.49 1.31,0.77 2.99,0.33 3.75,-0.98 0.77,-1.31 0.32,-2.99 -0.98,-3.75 -0.39,-0.23 -3.96,-2.24 -8.15,-2.24 -9.7,0 -15.49,6.2 -15.49,16.58 0,10.38 5.79,16.58 15.49,16.58z"/>
   <path class="fil2" d="M428.85 127.79c1.51,0 2.74,-1.23 2.74,-2.74l0 -12.86 -0.18 -7.48 0.65 1.05c2.08,2.9 11.52,16.03 14.92,20.79 0.4,0.55 1.39,1.24 2.41,1.24 1.51,0 2.74,-1.23 2.74,-2.74l0 -27.68c0,-1.52 -1.23,-2.74 -2.74,-2.74 -1.52,0 -2.75,1.22 -2.75,2.74l0 12.1 0 0 0.2 8.26 -0.65 -1.05c-2.03,-2.83 -11.49,-15.98 -14.94,-20.82 -0.4,-0.55 -1.35,-1.23 -2.4,-1.23 -1.52,0 -2.75,1.22 -2.75,2.74l0 27.68c0,1.51 1.23,2.74 2.75,2.74z"/>
   <path class="fil2" d="M364.19 145.28c0.81,-1.96 1.61,-1.96 1.95,-1.96 0.54,0 1.15,0 1.95,1.96 0.36,0.88 1.8,4.81 3.48,9.49l-10.85 0c1.68,-4.68 3.11,-8.61 3.47,-9.49zm-12.23 25.74c1.44,0.52 3.02,-0.24 3.54,-1.68 0.88,-2.47 2.04,-5.72 3.23,-9.04l14.83 0c1.19,3.32 2.35,6.57 3.23,9.04 0.4,1.14 1.47,1.84 2.61,1.84 0.31,0 0.62,-0.05 0.93,-0.16 1.44,-0.51 2.19,-2.09 1.68,-3.53 -0.32,-0.9 -7.82,-21.93 -8.79,-24.3 -1.46,-3.59 -3.84,-5.41 -7.08,-5.41 -1.82,0 -5.16,0.7 -7.08,5.41 -0.96,2.37 -8.46,23.4 -8.78,24.3 -0.51,1.44 0.24,3.02 1.68,3.53z"/>
   <path class="fil2" d="M490.76 97.36c0,0.69 -0.04,16.92 0,20.87 0.06,5.9 4.3,9.56 11.07,9.56l7.26 0c1.52,0 2.74,-1.23 2.74,-2.74 0,-1.52 -1.22,-2.75 -2.74,-2.75l-7.26 0c-5.55,0 -5.58,-3.1 -5.59,-4.13 -0.01,-0.93 -0.01,-4.58 -0.01,-4.58l10.6 0c1.51,0 2.74,-1.23 2.74,-2.74 0,-1.52 -1.23,-2.74 -2.74,-2.74l-10.6 0 0.01 -8 12.85 0c1.52,0 2.74,-1.23 2.74,-2.74 0,-1.52 -1.22,-2.74 -2.74,-2.74l-15.59 0c-1.51,0 -2.74,1.22 -2.74,2.73z"/>
   <path class="fil2" d="M533.68 109.53c-1.09,-0.54 -2.45,-1.17 -3.77,-1.77l-0.22 -0.1c-1.16,-0.54 -2.27,-1.04 -3.12,-1.47 -1.83,-0.88 -2.97,-2.21 -2.97,-3.47 0,-1.63 1.75,-3.32 4.68,-3.32 2.14,0 3.83,0.62 5.04,1.86 0.67,0.71 1.5,1.1 2.33,1.1 1.53,0 2.82,-1.25 2.82,-2.72 0,-2.12 -3.53,-5.04 -10.15,-5.04 -6.63,0 -10.1,4.17 -10.1,8.29 0,3.33 2.24,6.27 6,7.85 2.34,0.99 4.67,2.18 6.85,3.33 2.22,1.15 3.6,2.88 3.6,4.52 0,1.1 -1.13,4.22 -6.12,4.22 -2.78,0 -5.12,-1 -6.43,-2.73 -0.57,-0.74 -1.36,-1.16 -2.22,-1.16 -1.4,0 -2.91,1.08 -2.91,2.68 0,2.25 3.85,6.27 11.52,6.27 7.65,0 11.78,-4.86 11.78,-9.44 0,-3.56 -2.35,-6.72 -6.61,-8.9z"/>
   <path class="fil2" d="M334.31 127.87c7.65,0 11.78,-4.87 11.78,-9.44 0,-3.56 -2.35,-6.72 -6.61,-8.9 -1.16,-0.58 -2.68,-1.28 -3.9,-1.83l-0.07 -0.04c-1.18,-0.53 -2.28,-1.04 -3.14,-1.47 -1.83,-0.88 -2.97,-2.22 -2.97,-3.47 0,-1.63 1.75,-3.32 4.68,-3.32 2.14,0 3.83,0.62 5.04,1.86 0.67,0.71 1.5,1.1 2.33,1.1 1.53,0 2.82,-1.25 2.82,-2.72 0,-2.12 -3.53,-5.04 -10.15,-5.04 -6.63,0 -10.1,4.17 -10.1,8.29 0,3.33 2.24,6.27 6,7.85 2.33,0.98 4.67,2.18 6.85,3.33 2.22,1.15 3.6,2.88 3.6,4.52 0,1.1 -1.13,4.22 -6.12,4.22 -2.78,0 -5.12,-1 -6.43,-2.73 -0.57,-0.74 -1.36,-1.16 -2.22,-1.16 -1.4,0 -2.91,1.08 -2.91,2.68 0,2.25 3.85,6.27 11.52,6.27z"/>
  </g>
 </g>
</svg>
