<svg width="512" height="467" viewBox="0 0 512 467" fill="none" xmlns="http://www.w3.org/2000/svg">
<path fill-rule="evenodd" clip-rule="evenodd" d="M71.5452 10.0884C72.398 10.0884 73.0894 9.39702 73.0894 8.54419C73.0894 7.69136 72.398 7 71.5452 7C70.6924 7 70.001 7.69136 70.001 8.54419C70.001 9.39702 70.6924 10.0884 71.5452 10.0884ZM71.5442 30.6785C72.3971 30.6785 73.0885 29.9871 73.0885 29.1342C73.0885 28.2814 72.3971 27.59 71.5442 27.59C70.6914 27.59 70 28.2814 70 29.1342C70 29.9871 70.6914 30.6785 71.5442 30.6785ZM93.6776 8.54445C93.6776 9.39731 92.9862 10.0887 92.1333 10.0887C91.2805 10.0887 90.5891 9.39731 90.5891 8.54445C90.5891 7.6916 91.2805 7.00022 92.1333 7.00022C92.9862 7.00022 93.6776 7.6916 93.6776 8.54445ZM92.1333 30.6785C92.9862 30.6785 93.6776 29.9871 93.6776 29.1342C93.6776 28.2814 92.9862 27.59 92.1333 27.59C91.2805 27.59 90.5891 28.2814 90.5891 29.1342C90.5891 29.9871 91.2805 30.6785 92.1333 30.6785ZM114.268 8.54445C114.268 9.39731 113.576 10.0887 112.724 10.0887C111.871 10.0887 111.179 9.39731 111.179 8.54445C111.179 7.6916 111.871 7.00022 112.724 7.00022C113.576 7.00022 114.268 7.6916 114.268 8.54445ZM112.724 30.6785C113.576 30.6785 114.268 29.9871 114.268 29.1342C114.268 28.2814 113.576 27.59 112.724 27.59C111.871 27.59 111.179 28.2814 111.179 29.1342C111.179 29.9871 111.871 30.6785 112.724 30.6785ZM134.858 8.54445C134.858 9.39731 134.166 10.0887 133.314 10.0887C132.461 10.0887 131.769 9.39731 131.769 8.54445C131.769 7.6916 132.461 7.00022 133.314 7.00022C134.166 7.00022 134.858 7.6916 134.858 8.54445ZM133.314 30.6785C134.166 30.6785 134.858 29.9871 134.858 29.1342C134.858 28.2814 134.166 27.59 133.314 27.59C132.461 27.59 131.769 28.2814 131.769 29.1342C131.769 29.9871 132.461 30.6785 133.314 30.6785ZM155.447 8.54445C155.447 9.39731 154.756 10.0887 153.903 10.0887C153.05 10.0887 152.358 9.39731 152.358 8.54445C152.358 7.6916 153.05 7.00022 153.903 7.00022C154.756 7.00022 155.447 7.6916 155.447 8.54445ZM153.903 30.6785C154.756 30.6785 155.447 29.9871 155.447 29.1342C155.447 28.2814 154.756 27.59 153.903 27.59C153.05 27.59 152.358 28.2814 152.358 29.1342C152.358 29.9871 153.05 30.6785 153.903 30.6785ZM176.037 8.54445C176.037 9.39731 175.346 10.0887 174.493 10.0887C173.64 10.0887 172.949 9.39731 172.949 8.54445C172.949 7.6916 173.64 7.00022 174.493 7.00022C175.346 7.00022 176.037 7.6916 176.037 8.54445ZM174.493 30.6785C175.346 30.6785 176.037 29.9871 176.037 29.1342C176.037 28.2814 175.346 27.59 174.493 27.59C173.64 27.59 172.949 28.2814 172.949 29.1342C172.949 29.9871 173.64 30.6785 174.493 30.6785ZM73.0885 49.724C73.0885 50.5769 72.3971 51.2683 71.5442 51.2683C70.6914 51.2683 70 50.5769 70 49.724C70 48.8712 70.6914 48.1798 71.5442 48.1798C72.3971 48.1798 73.0885 48.8712 73.0885 49.724ZM92.1333 51.2683C92.9862 51.2683 93.6776 50.5769 93.6776 49.724C93.6776 48.8712 92.9862 48.1798 92.1333 48.1798C91.2805 48.1798 90.5891 48.8712 90.5891 49.724C90.5891 50.5769 91.2805 51.2683 92.1333 51.2683ZM114.268 49.724C114.268 50.5769 113.576 51.2683 112.724 51.2683C111.871 51.2683 111.179 50.5769 111.179 49.724C111.179 48.8712 111.871 48.1798 112.724 48.1798C113.576 48.1798 114.268 48.8712 114.268 49.724ZM133.314 51.2683C134.166 51.2683 134.858 50.5769 134.858 49.724C134.858 48.8712 134.166 48.1798 133.314 48.1798C132.461 48.1798 131.769 48.8712 131.769 49.724C131.769 50.5769 132.461 51.2683 133.314 51.2683ZM155.447 49.724C155.447 50.5769 154.756 51.2683 153.903 51.2683C153.05 51.2683 152.358 50.5769 152.358 49.724C152.358 48.8712 153.05 48.1798 153.903 48.1798C154.756 48.1798 155.447 48.8712 155.447 49.724ZM174.493 51.2683C175.346 51.2683 176.037 50.5769 176.037 49.724C176.037 48.8712 175.346 48.1798 174.493 48.1798C173.64 48.1798 172.949 48.8712 172.949 49.724C172.949 50.5769 173.64 51.2683 174.493 51.2683ZM73.0885 70.3133C73.0885 71.1662 72.3971 71.8576 71.5442 71.8576C70.6914 71.8576 70 71.1662 70 70.3133C70 69.4605 70.6914 68.7691 71.5442 68.7691C72.3971 68.7691 73.0885 69.4605 73.0885 70.3133ZM92.1333 71.8576C92.9862 71.8576 93.6776 71.1662 93.6776 70.3133C93.6776 69.4605 92.9862 68.7691 92.1333 68.7691C91.2805 68.7691 90.5891 69.4605 90.5891 70.3133C90.5891 71.1662 91.2805 71.8576 92.1333 71.8576ZM114.268 70.3133C114.268 71.1662 113.576 71.8576 112.724 71.8576C111.871 71.8576 111.179 71.1662 111.179 70.3133C111.179 69.4605 111.871 68.7691 112.724 68.7691C113.576 68.7691 114.268 69.4605 114.268 70.3133ZM133.314 71.8576C134.166 71.8576 134.858 71.1662 134.858 70.3133C134.858 69.4605 134.166 68.7691 133.314 68.7691C132.461 68.7691 131.769 69.4605 131.769 70.3133C131.769 71.1662 132.461 71.8576 133.314 71.8576ZM155.447 70.3133C155.447 71.1662 154.756 71.8576 153.903 71.8576C153.05 71.8576 152.358 71.1662 152.358 70.3133C152.358 69.4605 153.05 68.7691 153.903 68.7691C154.756 68.7691 155.447 69.4605 155.447 70.3133ZM174.493 71.8576C175.346 71.8576 176.037 71.1662 176.037 70.3133C176.037 69.4605 175.346 68.7691 174.493 68.7691C173.64 68.7691 172.949 69.4605 172.949 70.3133C172.949 71.1662 173.64 71.8576 174.493 71.8576ZM73.0885 90.9031C73.0885 91.756 72.3971 92.4474 71.5442 92.4474C70.6914 92.4474 70 91.756 70 90.9031C70 90.0503 70.6914 89.3589 71.5442 89.3589C72.3971 89.3589 73.0885 90.0503 73.0885 90.9031ZM92.1333 92.4474C92.9862 92.4474 93.6776 91.756 93.6776 90.9031C93.6776 90.0503 92.9862 89.3589 92.1333 89.3589C91.2805 89.3589 90.5891 90.0503 90.5891 90.9031C90.5891 91.756 91.2805 92.4474 92.1333 92.4474ZM114.268 90.9031C114.268 91.756 113.576 92.4474 112.724 92.4474C111.871 92.4474 111.179 91.756 111.179 90.9031C111.179 90.0503 111.871 89.3589 112.724 89.3589C113.576 89.3589 114.268 90.0503 114.268 90.9031ZM133.314 92.4474C134.166 92.4474 134.858 91.756 134.858 90.9031C134.858 90.0503 134.166 89.3589 133.314 89.3589C132.461 89.3589 131.769 90.0503 131.769 90.9031C131.769 91.756 132.461 92.4474 133.314 92.4474ZM155.447 90.9031C155.447 91.756 154.756 92.4474 153.903 92.4474C153.05 92.4474 152.358 91.756 152.358 90.9031C152.358 90.0503 153.05 89.3589 153.903 89.3589C154.756 89.3589 155.447 90.0503 155.447 90.9031ZM174.493 92.4474C175.346 92.4474 176.037 91.756 176.037 90.9031C176.037 90.0503 175.346 89.3589 174.493 89.3589C173.64 89.3589 172.949 90.0503 172.949 90.9031C172.949 91.756 173.64 92.4474 174.493 92.4474ZM73.0885 111.493C73.0885 112.346 72.3971 113.037 71.5442 113.037C70.6914 113.037 70 112.346 70 111.493C70 110.64 70.6914 109.949 71.5442 109.949C72.3971 109.949 73.0885 110.64 73.0885 111.493ZM92.1333 113.037C92.9862 113.037 93.6776 112.346 93.6776 111.493C93.6776 110.64 92.9862 109.949 92.1333 109.949C91.2805 109.949 90.5891 110.64 90.5891 111.493C90.5891 112.346 91.2805 113.037 92.1333 113.037ZM114.268 111.493C114.268 112.346 113.576 113.037 112.724 113.037C111.871 113.037 111.179 112.346 111.179 111.493C111.179 110.64 111.871 109.949 112.724 109.949C113.576 109.949 114.268 110.64 114.268 111.493ZM133.314 113.037C134.166 113.037 134.858 112.346 134.858 111.493C134.858 110.64 134.166 109.949 133.314 109.949C132.461 109.949 131.769 110.64 131.769 111.493C131.769 112.346 132.461 113.037 133.314 113.037ZM155.447 111.493C155.447 112.346 154.756 113.037 153.903 113.037C153.05 113.037 152.358 112.346 152.358 111.493C152.358 110.64 153.05 109.949 153.903 109.949C154.756 109.949 155.447 110.64 155.447 111.493ZM174.493 113.037C175.346 113.037 176.037 112.346 176.037 111.493C176.037 110.64 175.346 109.949 174.493 109.949C173.64 109.949 172.949 110.64 172.949 111.493C172.949 112.346 173.64 113.037 174.493 113.037Z" fill="#5AD501"/>
<g opacity="0.44" filter="url(#filter0_f_2795_68)">
<path opacity="0.44" d="M271.751 426.538C339.466 426.538 394.359 371.645 394.359 303.93C394.359 236.215 339.466 181.322 271.751 181.322C204.037 181.322 149.143 236.215 149.143 303.93C149.143 371.645 204.037 426.538 271.751 426.538Z" fill="#94C23E"/>
</g>
<g filter="url(#filter1_d_2795_68)">
<path d="M352.14 20.0581H167.825C115.271 20.0581 72.6687 62.6609 72.6687 115.214V299.529C72.6687 352.082 115.271 394.685 167.825 394.685H352.14C404.693 394.685 447.296 352.082 447.296 299.529V115.214C447.296 62.6609 404.693 20.0581 352.14 20.0581Z" fill="white"/>
</g>
<g filter="url(#filter2_ddd_2795_68)">
<path d="M389.201 199.061C391.363 232.668 380.346 265.796 358.487 291.416C336.629 317.035 305.649 333.131 272.12 336.288C238.591 339.444 205.151 329.414 178.895 308.325C152.639 287.235 135.632 256.746 131.483 223.325L202.53 214.505C204.385 229.447 211.989 243.079 223.728 252.508C235.467 261.937 250.418 266.421 265.409 265.01C280.4 263.598 294.251 256.402 304.024 244.948C313.797 233.493 318.722 218.682 317.756 203.656L389.201 199.061Z" fill="white" stroke="#F3F3EC" stroke-width="1.82161"/>
<mask id="mask0_2795_68" style="mask-type:alpha" maskUnits="userSpaceOnUse" x="131" y="203" width="259" height="134">
<path d="M389.403 203.267C390.456 236.459 378.716 268.787 356.609 293.568C334.503 318.35 303.72 333.69 270.624 336.42C237.527 339.149 204.648 329.058 178.78 308.232C152.913 287.407 136.036 257.439 131.637 224.523L202.599 215.04C204.566 229.757 212.112 243.155 223.677 252.466C235.242 261.777 249.943 266.289 264.74 265.069C279.537 263.849 293.3 256.99 303.184 245.91C313.068 234.83 318.317 220.376 317.846 205.536L389.403 203.267Z" fill="white"/>
</mask>
<g mask="url(#mask0_2795_68)">
<path d="M389.403 203.267C390.456 236.459 378.716 268.787 356.609 293.568C334.503 318.35 303.72 333.69 270.624 336.42C237.527 339.149 204.648 329.058 178.78 308.232C152.913 287.407 136.036 257.439 131.637 224.523L202.599 215.04C204.566 229.757 212.112 243.155 223.677 252.466C235.242 261.777 249.943 266.289 264.74 265.069C279.537 263.849 293.3 256.99 303.184 245.91C313.068 234.83 318.317 220.376 317.846 205.536L389.403 203.267Z" fill="white" stroke="#94C23E" stroke-width="88.7223"/>
<path d="M254.552 294.977C254.552 294.582 254.217 294.248 253.823 294.248H248.819C249.154 293.972 249.488 293.696 249.804 293.4C250.099 293.124 250.533 292.691 251.104 292.08C251.656 291.469 252.129 290.878 252.523 290.307C253.311 289.144 254.02 287.45 254.02 286.011C254.02 285.026 253.685 284.179 252.996 283.47C252.306 282.76 251.36 282.406 250.119 282.406C248.168 282.406 247.045 283.135 246.119 284.869C246.06 284.967 246.04 285.066 246.04 285.164C246.04 285.46 246.178 285.676 246.434 285.814L246.966 286.09C247.104 286.149 247.223 286.189 247.341 286.189C247.636 286.189 247.853 286.051 248.011 285.795C248.503 285.046 249.134 284.671 249.863 284.671C250.986 284.671 251.617 285.341 251.617 286.465C251.617 287.627 251.006 288.987 249.843 290.405C249.252 291.115 248.72 291.725 248.227 292.238C247.735 292.75 247.124 293.341 246.415 294.011C245.962 294.425 245.745 294.839 245.745 295.213V295.627C245.745 296.021 246.08 296.356 246.474 296.356H253.823C254.217 296.356 254.552 296.021 254.552 295.627V294.977ZM265.341 293.164C265.735 293.164 266.07 292.829 266.07 292.435V291.627C266.07 291.233 265.735 290.898 265.341 290.898H264.297V288.218C264.297 287.824 263.962 287.489 263.568 287.489H262.76C262.366 287.489 262.031 287.824 262.031 288.218V290.898H258.662L263.056 283.529C263.115 283.43 263.154 283.332 263.154 283.194C263.154 282.859 262.878 282.563 262.504 282.563H261.696C261.263 282.563 260.908 282.78 260.652 283.213L256.12 290.839C255.824 291.351 255.667 291.765 255.667 292.1V292.494C255.667 292.829 256.002 293.164 256.396 293.164H262.031V295.627C262.031 296.021 262.366 296.356 262.76 296.356H263.568C263.962 296.356 264.297 296.021 264.297 295.627V293.164H265.341ZM232.534 311.252C233.42 310.385 233.854 309.282 233.854 307.922C233.854 306.563 233.42 305.459 232.534 304.573C231.647 303.706 230.465 303.272 229.026 303.272C227.588 303.272 226.425 303.706 225.539 304.573C224.652 305.459 224.199 306.563 224.199 307.922C224.199 309.282 224.652 310.385 225.539 311.252C226.425 312.139 227.588 312.573 229.026 312.573C230.465 312.573 231.647 312.139 232.534 311.252ZM229.026 305.4C230.425 305.4 231.45 306.445 231.45 307.922C231.45 309.44 230.445 310.464 229.026 310.464C227.627 310.464 226.622 309.4 226.622 307.922C226.622 306.425 227.667 305.4 229.026 305.4ZM242.08 305.834C242.356 305.834 242.573 305.696 242.75 305.42L243.046 304.908C243.105 304.809 243.125 304.711 243.125 304.593C243.125 304.297 243.007 304.08 242.77 303.942C241.962 303.489 240.977 303.272 239.854 303.272C238.534 303.272 237.43 303.726 236.563 304.612C235.696 305.499 235.263 306.602 235.263 307.922C235.263 309.321 235.716 310.445 236.603 311.292C237.489 312.139 238.652 312.573 240.13 312.573C241.332 312.573 242.356 312.218 243.243 311.528C243.42 311.39 243.519 311.174 243.519 310.898C243.519 310.72 243.479 310.602 243.381 310.504L243.046 310.09C242.888 309.893 242.691 309.794 242.435 309.794C242.297 309.794 242.14 309.853 241.962 309.952C241.43 310.287 240.859 310.464 240.248 310.464C238.849 310.464 237.687 309.44 237.687 307.922C237.687 307.174 237.943 306.563 238.435 306.09C238.928 305.637 239.499 305.4 240.149 305.4C240.721 305.4 241.233 305.519 241.726 305.755C241.844 305.814 241.962 305.834 242.08 305.834ZM252.37 303.489C251.976 303.489 251.641 303.824 251.641 304.218V306.839H247.759V304.218C247.759 303.824 247.424 303.489 247.03 303.489H246.222C245.828 303.489 245.493 303.824 245.493 304.218V311.627C245.493 312.021 245.828 312.356 246.222 312.356H247.03C247.424 312.356 247.759 312.021 247.759 311.627V308.967H251.641V311.627C251.641 312.021 251.976 312.356 252.37 312.356H253.178C253.572 312.356 253.907 312.021 253.907 311.627V304.218C253.907 303.824 253.572 303.489 253.178 303.489H252.37ZM264.206 311.252C265.093 310.385 265.526 309.282 265.526 307.922C265.526 306.563 265.093 305.459 264.206 304.573C263.319 303.706 262.137 303.272 260.699 303.272C259.26 303.272 258.098 303.706 257.211 304.573C256.324 305.459 255.871 306.563 255.871 307.922C255.871 309.282 256.324 310.385 257.211 311.252C258.098 312.139 259.26 312.573 260.699 312.573C262.137 312.573 263.319 312.139 264.206 311.252ZM260.699 305.4C262.098 305.4 263.122 306.445 263.122 307.922C263.122 309.44 262.117 310.464 260.699 310.464C259.3 310.464 258.295 309.4 258.295 307.922C258.295 306.425 259.339 305.4 260.699 305.4ZM270.975 303.391C270.127 303.391 269.221 303.41 268.216 303.469C267.802 303.489 267.487 303.804 267.487 304.218V311.627C267.487 312.041 267.802 312.356 268.216 312.376C268.354 312.376 268.787 312.395 269.497 312.415C270.186 312.435 270.699 312.454 271.014 312.454C273.832 312.454 275.231 311.568 275.231 309.775C275.231 308.711 274.6 308.021 273.339 307.706C274.265 307.548 274.994 306.74 274.994 305.716C274.994 304.159 273.654 303.391 270.975 303.391ZM271.172 308.592C272.295 308.592 272.846 308.927 272.846 309.617C272.846 310.248 272.255 310.642 271.25 310.642C271.152 310.642 270.64 310.622 269.753 310.563V308.592H271.172ZM269.753 305.262C270.068 305.243 270.541 305.223 271.172 305.223C272.117 305.223 272.59 305.538 272.59 306.189C272.59 306.839 272.019 307.213 271.231 307.213H269.753V305.262ZM284.254 303.489C283.86 303.489 283.525 303.824 283.525 304.218V306.839H279.643V304.218C279.643 303.824 279.308 303.489 278.914 303.489H278.106C277.712 303.489 277.377 303.824 277.377 304.218V311.627C277.377 312.021 277.712 312.356 278.106 312.356H278.914C279.308 312.356 279.643 312.021 279.643 311.627V308.967H283.525V311.627C283.525 312.021 283.86 312.356 284.254 312.356H285.062C285.456 312.356 285.791 312.021 285.791 311.627V304.218C285.791 303.824 285.456 303.489 285.062 303.489H284.254ZM289.371 303.489C288.977 303.489 288.642 303.824 288.642 304.218V311.627C288.642 312.021 288.977 312.356 289.371 312.356H290.179C290.573 312.356 290.908 312.021 290.908 311.627V304.218C290.908 303.824 290.573 303.489 290.179 303.489H289.371ZM289.824 298.977C289.036 298.977 288.405 299.509 288.405 300.297C288.405 301.164 289.016 301.716 289.824 301.716C290.514 301.716 291.125 301.164 291.125 300.297C291.125 299.509 290.514 298.977 289.824 298.977Z" fill="#E1E1E1"/>
<path d="M131.271 221.513C129.373 204.244 130.97 186.77 135.967 170.131C140.963 153.492 149.257 138.029 160.354 124.662C171.451 111.295 185.124 100.298 200.56 92.3254C215.995 84.3528 232.877 79.5678 250.201 78.2555C267.524 76.9431 284.934 79.1302 301.395 84.6864C317.855 90.2426 333.029 99.0544 346.013 110.597C358.997 122.14 369.526 136.177 376.972 151.873C384.418 167.569 388.629 184.604 389.355 201.961L317.825 204.953C317.5 197.192 315.617 189.576 312.288 182.558C308.959 175.54 304.252 169.264 298.447 164.104C292.641 158.943 285.857 155.003 278.498 152.519C271.138 150.035 263.354 149.057 255.609 149.644C247.864 150.231 240.316 152.37 233.414 155.934C226.513 159.499 220.4 164.416 215.438 170.392C210.477 176.368 206.769 183.282 204.535 190.721C202.301 198.161 201.587 205.973 202.435 213.694L131.271 221.513Z" fill="white" stroke="#F3F3EC" stroke-width="1.82161"/>
</g>
<mask id="mask1_2795_68" style="mask-type:alpha" maskUnits="userSpaceOnUse" x="130" y="77" width="259" height="146">
<path d="M130.992 222.484C128.835 205.159 130.204 187.576 135.017 170.793C139.829 154.01 147.986 138.374 158.997 124.825C170.007 111.276 183.645 100.093 199.088 91.9491C214.531 83.8054 231.462 78.8689 248.863 77.4365C266.263 76.0041 283.773 78.1054 300.34 83.6139C316.908 89.1225 332.19 97.9246 345.268 109.491C358.347 121.057 368.951 135.149 376.443 150.919C383.935 166.689 388.161 183.811 388.866 201.256L317.332 204.147C317.017 196.348 315.127 188.693 311.778 181.642C308.428 174.591 303.687 168.291 297.839 163.12C291.992 157.948 285.159 154.013 277.752 151.55C270.345 149.087 262.516 148.148 254.736 148.788C246.957 149.428 239.387 151.636 232.482 155.277C225.577 158.918 219.48 163.917 214.557 169.975C209.634 176.033 205.987 183.024 203.836 190.528C201.684 198.031 201.072 205.893 202.036 213.639L130.992 222.484Z" fill="white"/>
</mask>
<g mask="url(#mask1_2795_68)">
<path d="M130.992 222.484C128.835 205.159 130.204 187.576 135.017 170.793C139.829 154.01 147.986 138.374 158.997 124.825C170.007 111.276 183.645 100.093 199.088 91.9491C214.531 83.8054 231.462 78.8689 248.863 77.4365C266.263 76.0041 283.773 78.1054 300.34 83.6139C316.908 89.1225 332.19 97.9246 345.268 109.491C358.347 121.057 368.951 135.149 376.443 150.919C383.935 166.689 388.161 183.811 388.866 201.256L317.332 204.147C317.017 196.348 315.127 188.693 311.778 181.642C308.428 174.591 303.687 168.291 297.839 163.12C291.992 157.948 285.159 154.013 277.752 151.55C270.345 149.087 262.516 148.148 254.736 148.788C246.957 149.428 239.387 151.636 232.482 155.277C225.577 158.918 219.48 163.917 214.557 169.975C209.634 176.033 205.987 183.024 203.836 190.528C201.684 198.031 201.072 205.893 202.036 213.639L130.992 222.484Z" fill="white" stroke="#B4DC7F" stroke-width="88.7223"/>
<path d="M256.753 115.469C256.753 115.075 256.418 114.74 256.024 114.74H251.019C251.354 114.464 251.689 114.189 252.004 113.893C252.3 113.617 252.733 113.184 253.305 112.573C253.856 111.962 254.329 111.371 254.723 110.8C255.511 109.637 256.221 107.943 256.221 106.504C256.221 105.519 255.886 104.672 255.196 103.962C254.507 103.253 253.561 102.898 252.319 102.898C250.369 102.898 249.246 103.627 248.32 105.361C248.26 105.46 248.241 105.558 248.241 105.657C248.241 105.952 248.379 106.169 248.635 106.307L249.167 106.583C249.305 106.642 249.423 106.681 249.541 106.681C249.837 106.681 250.053 106.544 250.211 106.287C250.704 105.539 251.334 105.164 252.063 105.164C253.186 105.164 253.817 105.834 253.817 106.957C253.817 108.12 253.206 109.479 252.044 110.898C251.452 111.607 250.92 112.218 250.428 112.731C249.935 113.243 249.324 113.834 248.615 114.504C248.162 114.918 247.945 115.331 247.945 115.706V116.12C247.945 116.514 248.28 116.849 248.674 116.849H256.024C256.418 116.849 256.753 116.514 256.753 116.12V115.469ZM261.236 109.598C261.847 107.312 263.522 105.617 265.571 104.77C265.906 104.632 266.084 104.416 266.084 104.081C266.084 104.002 266.064 103.903 266.024 103.805L265.808 103.233C265.709 102.977 265.492 102.839 265.158 102.839C265.039 102.839 264.921 102.859 264.803 102.898C263.246 103.47 261.788 104.553 260.567 106.051C259.345 107.568 258.557 109.696 258.557 111.962C258.557 113.4 259.01 114.602 259.897 115.588C260.783 116.573 261.985 117.065 263.483 117.065C264.665 117.065 265.709 116.652 266.596 115.824C267.483 115.016 267.936 113.913 267.936 112.533C267.936 111.292 267.561 110.287 266.813 109.499C266.064 108.711 265.158 108.317 264.074 108.317C262.793 108.317 261.847 108.75 261.236 109.598ZM260.961 111.982C261.374 111.115 262.182 110.425 263.305 110.425C264.724 110.425 265.532 111.371 265.532 112.691C265.532 113.854 264.704 114.799 263.502 114.799C261.906 114.799 260.961 113.617 260.961 111.982ZM213.338 124.652C213.102 124.79 212.983 125.007 212.983 125.302C212.983 125.42 213.023 125.539 213.082 125.637L213.22 125.854C213.358 126.11 213.575 126.248 213.85 126.248C213.969 126.248 214.087 126.208 214.225 126.149C214.993 125.775 215.604 125.598 216.097 125.598C217.141 125.598 217.653 125.913 217.653 126.563C217.653 127.174 217.18 127.647 216.471 127.647H215.643C215.249 127.647 214.914 127.982 214.914 128.396C214.914 128.809 215.249 129.164 215.643 129.164H216.57C217.417 129.164 217.909 129.558 217.909 130.169C217.909 130.819 217.259 131.253 216.097 131.253C215.486 131.253 214.836 131.036 214.166 130.602C214.028 130.504 213.87 130.464 213.712 130.464C213.456 130.464 213.259 130.563 213.102 130.78L212.865 131.036C212.767 131.134 212.727 131.292 212.727 131.469C212.727 131.726 212.806 131.923 212.983 132.041C213.949 132.849 214.855 133.065 216.294 133.065C218.717 133.065 220.313 132.041 220.313 130.386C220.313 129.341 219.643 128.533 218.441 128.277C219.466 127.903 220.077 127.154 220.077 126.287C220.077 124.711 218.835 123.765 216.53 123.765C215.427 123.765 214.363 124.061 213.338 124.652ZM224.665 132.967C225.867 132.967 226.753 132.592 227.285 131.824V132.12C227.285 132.514 227.62 132.849 228.014 132.849H228.527C228.921 132.849 229.256 132.514 229.256 132.12V127.45C229.256 125.007 228.231 123.765 225.709 123.765C224.862 123.765 223.995 123.962 223.148 124.356C222.872 124.494 222.734 124.711 222.734 124.987C222.734 125.066 222.753 125.164 222.813 125.302L222.931 125.539C223.069 125.814 223.285 125.952 223.601 125.952C223.719 125.952 223.837 125.933 223.955 125.893C224.428 125.736 224.941 125.657 225.473 125.657C226.674 125.657 227.128 126.307 227.128 127.667V127.942C226.596 127.568 225.926 127.371 225.118 127.371C223.226 127.371 221.886 128.376 221.886 130.248C221.886 131.923 223.01 132.967 224.665 132.967ZM227.128 130.248C226.753 130.78 226.182 131.056 225.413 131.056C224.684 131.056 224.152 130.662 224.152 130.011C224.152 129.302 224.763 128.908 225.571 128.908C226.221 128.908 226.753 129.046 227.128 129.341V130.248ZM232.308 123.982C231.914 123.982 231.579 124.317 231.579 124.711V132.12C231.579 132.514 231.914 132.849 232.308 132.849H233.115C233.51 132.849 233.845 132.514 233.845 132.12V126.11H237.628V132.12C237.628 132.514 237.963 132.849 238.357 132.849H239.165C239.559 132.849 239.894 132.514 239.894 132.12V124.711C239.894 124.317 239.559 123.982 239.165 123.982H232.308ZM251.436 128.277C251.436 126.957 251.062 125.873 250.333 125.026C249.604 124.179 248.619 123.765 247.417 123.765C246.333 123.765 245.249 124.199 244.678 124.77C244.678 124.317 244.343 123.982 243.949 123.982H243.141C242.747 123.982 242.412 124.317 242.412 124.711V136.06C242.412 136.454 242.747 136.789 243.141 136.789H243.949C244.343 136.789 244.678 136.454 244.678 136.06V132.632C245.17 132.927 245.86 133.065 246.747 133.065C248.146 133.065 249.269 132.612 250.136 131.706C251.003 130.799 251.436 129.657 251.436 128.277ZM244.678 126.859C245.249 126.208 245.939 125.893 246.707 125.893C248.185 125.893 249.032 126.898 249.032 128.336C249.032 129.854 248.067 130.957 246.55 130.957C245.821 130.957 245.21 130.78 244.678 130.445V126.859ZM261.182 131.745C262.069 130.878 262.502 129.775 262.502 128.415C262.502 127.056 262.069 125.952 261.182 125.066C260.295 124.199 259.113 123.765 257.675 123.765C256.236 123.765 255.074 124.199 254.187 125.066C253.301 125.952 252.847 127.056 252.847 128.415C252.847 129.775 253.301 130.878 254.187 131.745C255.074 132.632 256.236 133.065 257.675 133.065C259.113 133.065 260.295 132.632 261.182 131.745ZM257.675 125.893C259.074 125.893 260.098 126.937 260.098 128.415C260.098 129.932 259.093 130.957 257.675 130.957C256.276 130.957 255.271 129.893 255.271 128.415C255.271 126.918 256.315 125.893 257.675 125.893ZM274.749 123.982C274.355 123.982 274.02 124.317 274.02 124.711V130.74H271.497V124.711C271.497 124.317 271.162 123.982 270.768 123.982H269.961C269.566 123.982 269.232 124.317 269.232 124.711V130.74H266.729V124.711C266.729 124.317 266.394 123.982 266 123.982H265.192C264.798 123.982 264.463 124.317 264.463 124.711V132.12C264.463 132.514 264.798 132.849 265.192 132.849H275.556C275.951 132.849 276.285 132.514 276.285 132.12V124.711C276.285 124.317 275.951 123.982 275.556 123.982H274.749ZM280.513 127.588C280.769 126.307 281.557 125.657 282.838 125.657C284.099 125.657 284.867 126.445 284.867 127.548V127.588H280.513ZM283.252 131.174C281.833 131.174 280.769 130.425 280.592 129.105H286.345C286.68 129.105 287.094 128.731 287.113 128.396C287.133 128.297 287.133 128.12 287.133 127.883C287.133 126.681 286.719 125.676 285.912 124.908C285.104 124.14 284.099 123.765 282.936 123.765C281.518 123.765 280.375 124.199 279.528 125.085C278.68 125.972 278.247 127.095 278.247 128.415C278.247 129.814 278.68 130.937 279.567 131.785C280.434 132.632 281.577 133.065 283.015 133.065C284.119 133.065 285.104 132.79 285.99 132.238C286.207 132.1 286.306 131.903 286.306 131.647C286.306 131.509 286.266 131.371 286.187 131.253L286.01 130.996C285.852 130.78 285.655 130.662 285.439 130.662C285.32 130.662 285.163 130.701 284.985 130.799C284.453 131.056 283.882 131.174 283.252 131.174ZM295.989 123.982C295.595 123.982 295.26 124.317 295.26 124.711V127.332H291.378V124.711C291.378 124.317 291.043 123.982 290.649 123.982H289.841C289.447 123.982 289.112 124.317 289.112 124.711V132.12C289.112 132.514 289.447 132.849 289.841 132.849H290.649C291.043 132.849 291.378 132.514 291.378 132.12V129.46H295.26V132.12C295.26 132.514 295.595 132.849 295.989 132.849H296.797C297.191 132.849 297.526 132.514 297.526 132.12V124.711C297.526 124.317 297.191 123.982 296.797 123.982H295.989ZM301.106 123.982C300.712 123.982 300.377 124.317 300.377 124.711V132.12C300.377 132.514 300.712 132.849 301.106 132.849H301.914C302.308 132.849 302.643 132.514 302.643 132.12V124.711C302.643 124.317 302.308 123.982 301.914 123.982H301.106ZM301.559 119.47C300.771 119.47 300.14 120.002 300.14 120.79C300.14 121.657 300.751 122.209 301.559 122.209C302.248 122.209 302.859 121.657 302.859 120.79C302.859 120.002 302.248 119.47 301.559 119.47Z" fill="#F3F3F3"/>
</g>
</g>
<path d="M259.982 267.483C293.18 267.483 320.093 240.57 320.093 207.372C320.093 174.174 293.18 147.261 259.982 147.261C226.784 147.261 199.871 174.174 199.871 207.372C199.871 240.57 226.784 267.483 259.982 267.483Z" fill="white"/>
<path d="M253.883 200.282C253.705 200.144 253.508 200.065 253.311 200.065C253.095 200.065 252.937 200.144 252.799 200.302L252.385 200.755C252.247 200.893 252.188 201.07 252.188 201.267C252.188 201.445 252.267 201.622 252.405 201.76C253.568 202.844 254.809 203.395 256.109 203.395C257.469 203.395 258.592 202.981 259.498 202.134C260.405 201.287 260.858 200.144 260.858 198.706C260.858 197.386 260.444 196.322 259.636 195.514C258.809 194.706 257.764 194.312 256.523 194.312C256.287 194.312 256.031 194.331 255.735 194.391L256.129 191.652H259.932C260.326 191.652 260.661 191.317 260.661 190.923V190.115C260.661 189.721 260.326 189.386 259.932 189.386H254.868C254.454 189.386 254.1 189.701 254.04 190.115L253.39 195.514C253.39 195.533 253.37 195.652 253.37 195.671C253.37 196.144 253.686 196.459 254.178 196.459C254.198 196.459 254.277 196.44 254.336 196.44C254.671 196.381 255.045 196.361 255.499 196.361C257.311 196.361 258.434 197.386 258.434 198.804C258.434 200.164 257.489 201.129 256.168 201.129C255.361 201.129 254.592 200.853 253.883 200.282ZM263.77 201.445C264.558 202.706 265.721 203.336 267.258 203.336C270.312 203.336 271.829 200.676 271.829 196.282C271.829 191.928 270.272 189.228 267.218 189.228C265.681 189.228 264.519 189.859 263.75 191.12C262.982 192.381 262.588 194.095 262.588 196.282C262.588 198.469 262.982 200.183 263.77 201.445ZM265.011 196.282C265.011 192.913 265.662 191.356 267.218 191.356C268.794 191.356 269.425 192.834 269.425 196.282C269.425 199.75 268.814 201.228 267.258 201.228C265.76 201.228 265.011 199.573 265.011 196.282ZM221.993 214.538C221.993 212.962 220.772 212.253 218.329 212.253C218.072 212.253 217.284 212.272 215.984 212.312C215.688 212.312 215.471 212.528 215.471 212.824V220.666C215.471 220.962 215.688 221.178 215.984 221.178C217.363 221.218 218.151 221.238 218.368 221.238C221.008 221.238 222.328 220.41 222.328 218.735C222.328 217.533 221.619 216.824 220.2 216.587C221.324 216.41 221.993 215.543 221.993 214.538ZM218.624 217.1C220.378 217.1 221.245 217.612 221.245 218.637C221.245 219.72 220.319 220.272 218.486 220.272C217.915 220.272 217.265 220.252 216.496 220.233V217.1H218.624ZM216.496 213.258C217.146 213.238 217.797 213.218 218.447 213.218C220.082 213.218 220.91 213.711 220.91 214.696C220.91 215.642 220.122 216.253 218.841 216.253H216.496V213.258ZM232.918 212.804C232.918 212.45 232.741 212.272 232.366 212.272C232.11 212.272 231.854 212.43 231.618 212.726L225.982 219.701V212.765C225.982 212.469 225.746 212.272 225.49 212.272C225.175 212.272 224.958 212.469 224.958 212.765V220.686C224.958 221.06 225.155 221.257 225.529 221.257C225.785 221.257 226.042 221.119 226.258 220.824L231.894 213.849V220.765C231.894 221.06 232.13 221.257 232.386 221.257C232.701 221.257 232.918 221.06 232.918 220.765V212.804ZM241.973 220.942C242.209 221.159 242.406 221.257 242.564 221.257C242.82 221.257 243.017 221.06 243.017 220.824C243.017 220.666 242.958 220.528 242.82 220.41L238.879 216.548L242.485 213.06C242.583 212.962 242.642 212.844 242.642 212.706C242.642 212.469 242.445 212.272 242.229 212.272C242.051 212.272 241.874 212.371 241.677 212.568L237.992 216.253C237.815 216.43 237.815 216.785 237.992 216.962L241.973 220.942ZM237.047 212.765C237.047 212.469 236.81 212.272 236.554 212.272C236.239 212.272 236.022 212.469 236.022 212.765V220.765C236.022 221.415 237.047 221.415 237.047 220.765V212.765ZM252.488 212.824C252.488 212.568 252.271 212.312 251.976 212.312H247.267C246.971 212.312 246.735 212.528 246.735 212.824L246.616 215.07C246.439 218.006 245.848 219.701 244.823 220.193C244.015 220.39 244.232 221.257 244.764 221.257H244.843C245.296 221.198 245.71 221.001 246.065 220.666C246.754 220.016 247.385 218.203 247.601 215.267L247.72 213.336H251.463V220.765C251.463 221.415 252.488 221.415 252.488 220.765V212.824ZM254.921 218.656C254.921 220.252 256.004 221.297 257.66 221.297C258.96 221.297 259.965 220.804 260.694 219.819V220.765C260.694 221.021 260.911 221.257 261.206 221.257C261.521 221.257 261.719 221.06 261.719 220.765V215.681C261.719 213.317 260.792 212.134 258.428 212.134C257.561 212.134 256.733 212.331 255.926 212.745C255.768 212.844 255.689 212.962 255.689 213.12C255.689 213.179 255.709 213.258 255.748 213.336C255.847 213.514 255.985 213.592 256.162 213.592C256.241 213.592 256.32 213.573 256.398 213.533C256.99 213.238 257.64 213.1 258.369 213.1C259.236 213.1 259.827 213.356 260.142 213.691C260.3 213.868 260.418 214.105 260.517 214.44C260.674 215.11 260.694 215.563 260.694 216.568C260.083 216.115 259.275 215.898 258.29 215.898C256.32 215.898 254.921 216.922 254.921 218.656ZM260.694 218.932C259.985 219.858 259.078 220.331 257.975 220.331C256.852 220.331 256.004 219.681 256.004 218.597C256.004 217.395 257.108 216.745 258.389 216.745C259.275 216.745 260.044 216.982 260.694 217.454V218.932ZM272.142 221.178V222.972C272.142 223.543 273.107 223.543 273.107 222.972V220.725C273.107 220.43 272.851 220.213 272.595 220.213H271.629V212.824C271.629 212.568 271.412 212.312 271.117 212.312H266.487C266.191 212.312 265.955 212.528 265.955 212.824L265.836 214.814C265.679 217.395 265.028 219.405 264.398 220.213H263.807C263.551 220.213 263.295 220.43 263.295 220.725V222.972C263.295 223.543 264.26 223.543 264.26 222.972V221.178H272.142ZM265.482 220.213C265.738 219.878 266.014 219.267 266.289 218.341C266.546 217.435 266.723 216.39 266.821 215.208L266.94 213.277H270.605V220.213H265.482ZM274.163 218.656C274.163 220.252 275.246 221.297 276.902 221.297C278.202 221.297 279.207 220.804 279.936 219.819V220.765C279.936 221.021 280.153 221.257 280.448 221.257C280.763 221.257 280.961 221.06 280.961 220.765V215.681C280.961 213.317 280.034 212.134 277.67 212.134C276.803 212.134 275.975 212.331 275.168 212.745C275.01 212.844 274.931 212.962 274.931 213.12C274.931 213.179 274.951 213.258 274.99 213.336C275.089 213.514 275.227 213.592 275.404 213.592C275.483 213.592 275.562 213.573 275.641 213.533C276.232 213.238 276.882 213.1 277.611 213.1C278.478 213.1 279.069 213.356 279.384 213.691C279.542 213.868 279.66 214.105 279.759 214.44C279.916 215.11 279.936 215.563 279.936 216.568C279.325 216.115 278.517 215.898 277.532 215.898C275.562 215.898 274.163 216.922 274.163 218.656ZM279.936 218.932C279.227 219.858 278.32 220.331 277.217 220.331C276.094 220.331 275.246 219.681 275.246 218.597C275.246 217.395 276.35 216.745 277.631 216.745C278.517 216.745 279.286 216.982 279.936 217.454V218.932ZM289.118 216.509C288.467 216.982 287.679 217.218 286.733 217.218C285.197 217.218 284.428 216.41 284.428 214.775V212.785C284.428 212.528 284.172 212.272 283.916 212.272C283.581 212.272 283.344 212.489 283.344 212.785V214.854C283.344 217.08 284.389 218.183 286.458 218.183C287.502 218.183 288.389 217.927 289.118 217.435V220.765C289.118 221.06 289.315 221.257 289.61 221.257C289.925 221.257 290.142 221.06 290.142 220.765V212.765C290.142 212.115 289.118 212.115 289.118 212.765V216.509ZM294.765 212.765C294.765 212.469 294.568 212.272 294.272 212.272C293.957 212.272 293.74 212.469 293.74 212.765V220.765C293.74 221.415 294.765 221.415 294.765 220.765V212.765ZM294.962 208.864C294.962 208.489 294.627 208.213 294.292 208.213C293.898 208.213 293.563 208.47 293.563 208.864C293.563 209.317 293.878 209.593 294.292 209.593C294.666 209.593 294.962 209.317 294.962 208.864ZM304.888 214.538C304.888 212.962 303.666 212.253 301.223 212.253C300.967 212.253 300.179 212.272 298.878 212.312C298.583 212.312 298.366 212.528 298.366 212.824V220.666C298.366 220.962 298.583 221.178 298.878 221.178C300.258 221.218 301.046 221.238 301.263 221.238C303.903 221.238 305.223 220.41 305.223 218.735C305.223 217.533 304.514 216.824 303.095 216.587C304.218 216.41 304.888 215.543 304.888 214.538ZM301.519 217.1C303.272 217.1 304.139 217.612 304.139 218.637C304.139 219.72 303.213 220.272 301.381 220.272C300.809 220.272 300.159 220.252 299.391 220.233V217.1H301.519ZM299.391 213.258C300.041 213.238 300.691 213.218 301.341 213.218C302.977 213.218 303.804 213.711 303.804 214.696C303.804 215.642 303.016 216.253 301.735 216.253H299.391V213.258Z" fill="#52616B"/>
<path d="M233.153 203.32C236.423 203.32 239.073 200.67 239.073 197.4C239.073 194.13 236.423 191.48 233.153 191.48C229.883 191.48 227.233 194.13 227.233 197.4C227.233 200.67 229.883 203.32 233.153 203.32Z" fill="#9700D9"/>
<defs>
<filter id="filter0_f_2795_68" x="109.143" y="141.322" width="325.216" height="325.216" filterUnits="userSpaceOnUse" color-interpolation-filters="sRGB">
<feFlood flood-opacity="0" result="BackgroundImageFix"/>
<feBlend mode="normal" in="SourceGraphic" in2="BackgroundImageFix" result="shape"/>
<feGaussianBlur stdDeviation="20" result="effect1_foregroundBlur_2795_68"/>
</filter>
<filter id="filter1_d_2795_68" x="33.8127" y="0.630106" width="452.339" height="452.339" filterUnits="userSpaceOnUse" color-interpolation-filters="sRGB">
<feFlood flood-opacity="0" result="BackgroundImageFix"/>
<feColorMatrix in="SourceAlpha" type="matrix" values="0 0 0 0 0 0 0 0 0 0 0 0 0 0 0 0 0 0 127 0" result="hardAlpha"/>
<feOffset dy="19.428"/>
<feGaussianBlur stdDeviation="19.428"/>
<feColorMatrix type="matrix" values="0 0 0 0 0 0 0 0 0 0 0 0 0 0 0 0 0 0 0.04 0"/>
<feBlend mode="normal" in2="BackgroundImageFix" result="effect1_dropShadow_2795_68"/>
<feBlend mode="normal" in="SourceGraphic" in2="effect1_dropShadow_2795_68" result="shape"/>
</filter>
<filter id="filter2_ddd_2795_68" x="109" y="60.554" width="302.379" height="305.145" filterUnits="userSpaceOnUse" color-interpolation-filters="sRGB">
<feFlood flood-opacity="0" result="BackgroundImageFix"/>
<feColorMatrix in="SourceAlpha" type="matrix" values="0 0 0 0 0 0 0 0 0 0 0 0 0 0 0 0 0 0 127 0" result="hardAlpha"/>
<feOffset dy="6.37564"/>
<feGaussianBlur stdDeviation="7"/>
<feColorMatrix type="matrix" values="0 0 0 0 0.580392 0 0 0 0 0.760784 0 0 0 0 0.243137 0 0 0 0.22 0"/>
<feBlend mode="normal" in2="BackgroundImageFix" result="effect1_dropShadow_2795_68"/>
<feColorMatrix in="SourceAlpha" type="matrix" values="0 0 0 0 0 0 0 0 0 0 0 0 0 0 0 0 0 0 127 0" result="hardAlpha"/>
<feOffset dy="4.55403"/>
<feGaussianBlur stdDeviation="10.5"/>
<feColorMatrix type="matrix" values="0 0 0 0 0.580392 0 0 0 0 0.760784 0 0 0 0 0.243137 0 0 0 0.12 0"/>
<feBlend mode="normal" in2="effect1_dropShadow_2795_68" result="effect2_dropShadow_2795_68"/>
<feColorMatrix in="SourceAlpha" type="matrix" values="0 0 0 0 0 0 0 0 0 0 0 0 0 0 0 0 0 0 127 0" result="hardAlpha"/>
<feOffset dy="10.9297"/>
<feGaussianBlur stdDeviation="8.5"/>
<feColorMatrix type="matrix" values="0 0 0 0 0.580392 0 0 0 0 0.760784 0 0 0 0 0.243137 0 0 0 0.14 0"/>
<feBlend mode="normal" in2="effect2_dropShadow_2795_68" result="effect3_dropShadow_2795_68"/>
<feBlend mode="normal" in="SourceGraphic" in2="effect3_dropShadow_2795_68" result="shape"/>
</filter>
</defs>
</svg>
