<svg width="527" height="585" viewBox="0 0 527 585" fill="none" xmlns="http://www.w3.org/2000/svg">
<path fill-rule="evenodd" clip-rule="evenodd" d="M46.6911 10.2412C47.5439 10.2412 48.2353 9.54985 48.2353 8.69702C48.2353 7.84419 47.5439 7.15283 46.6911 7.15283C45.8382 7.15283 45.1469 7.84419 45.1469 8.69702C45.1469 9.54985 45.8382 10.2412 46.6911 10.2412ZM46.6901 30.8313C47.543 30.8313 48.2343 30.1399 48.2343 29.2871C48.2343 28.4342 47.543 27.7428 46.6901 27.7428C45.8373 27.7428 45.1459 28.4342 45.1459 29.2871C45.1459 30.1399 45.8373 30.8313 46.6901 30.8313ZM68.8234 8.69729C68.8234 9.55014 68.1321 10.2415 67.2792 10.2415C66.4263 10.2415 65.735 9.55014 65.735 8.69729C65.735 7.84443 66.4263 7.15305 67.2792 7.15305C68.1321 7.15305 68.8234 7.84443 68.8234 8.69729ZM67.2792 30.8313C68.1321 30.8313 68.8234 30.1399 68.8234 29.2871C68.8234 28.4342 68.1321 27.7428 67.2792 27.7428C66.4263 27.7428 65.735 28.4342 65.735 29.2871C65.735 30.1399 66.4263 30.8313 67.2792 30.8313ZM89.4137 8.69729C89.4137 9.55014 88.7223 10.2415 87.8694 10.2415C87.0166 10.2415 86.3252 9.55014 86.3252 8.69729C86.3252 7.84443 87.0166 7.15305 87.8694 7.15305C88.7223 7.15305 89.4137 7.84443 89.4137 8.69729ZM87.8694 30.8313C88.7223 30.8313 89.4137 30.1399 89.4137 29.2871C89.4137 28.4342 88.7223 27.7428 87.8694 27.7428C87.0166 27.7428 86.3252 28.4342 86.3252 29.2871C86.3252 30.1399 87.0166 30.8313 87.8694 30.8313ZM110.004 8.69729C110.004 9.55014 109.312 10.2415 108.459 10.2415C107.607 10.2415 106.915 9.55014 106.915 8.69729C106.915 7.84443 107.607 7.15305 108.459 7.15305C109.312 7.15305 110.004 7.84443 110.004 8.69729ZM108.459 30.8313C109.312 30.8313 110.004 30.1399 110.004 29.2871C110.004 28.4342 109.312 27.7428 108.459 27.7428C107.607 27.7428 106.915 28.4342 106.915 29.2871C106.915 30.1399 107.607 30.8313 108.459 30.8313ZM130.593 8.69729C130.593 9.55014 129.901 10.2415 129.049 10.2415C128.196 10.2415 127.504 9.55014 127.504 8.69729C127.504 7.84443 128.196 7.15305 129.049 7.15305C129.901 7.15305 130.593 7.84443 130.593 8.69729ZM129.049 30.8313C129.901 30.8313 130.593 30.1399 130.593 29.2871C130.593 28.4342 129.901 27.7428 129.049 27.7428C128.196 27.7428 127.504 28.4342 127.504 29.2871C127.504 30.1399 128.196 30.8313 129.049 30.8313ZM151.183 8.69729C151.183 9.55014 150.492 10.2415 149.639 10.2415C148.786 10.2415 148.095 9.55014 148.095 8.69729C148.095 7.84443 148.786 7.15305 149.639 7.15305C150.492 7.15305 151.183 7.84443 151.183 8.69729ZM149.639 30.8313C150.492 30.8313 151.183 30.1399 151.183 29.2871C151.183 28.4342 150.492 27.7428 149.639 27.7428C148.786 27.7428 148.095 28.4342 148.095 29.2871C148.095 30.1399 148.786 30.8313 149.639 30.8313ZM48.2343 49.8769C48.2343 50.7297 47.543 51.4211 46.6901 51.4211C45.8373 51.4211 45.1459 50.7297 45.1459 49.8769C45.1459 49.024 45.8373 48.3326 46.6901 48.3326C47.543 48.3326 48.2343 49.024 48.2343 49.8769ZM67.2792 51.4211C68.1321 51.4211 68.8234 50.7297 68.8234 49.8769C68.8234 49.024 68.1321 48.3326 67.2792 48.3326C66.4263 48.3326 65.735 49.024 65.735 49.8769C65.735 50.7297 66.4263 51.4211 67.2792 51.4211ZM89.4137 49.8769C89.4137 50.7297 88.7223 51.4211 87.8694 51.4211C87.0166 51.4211 86.3252 50.7297 86.3252 49.8769C86.3252 49.024 87.0166 48.3326 87.8694 48.3326C88.7223 48.3326 89.4137 49.024 89.4137 49.8769ZM108.459 51.4211C109.312 51.4211 110.004 50.7297 110.004 49.8769C110.004 49.024 109.312 48.3326 108.459 48.3326C107.607 48.3326 106.915 49.024 106.915 49.8769C106.915 50.7297 107.607 51.4211 108.459 51.4211ZM130.593 49.8769C130.593 50.7297 129.901 51.4211 129.049 51.4211C128.196 51.4211 127.504 50.7297 127.504 49.8769C127.504 49.024 128.196 48.3326 129.049 48.3326C129.901 48.3326 130.593 49.024 130.593 49.8769ZM149.639 51.4211C150.492 51.4211 151.183 50.7297 151.183 49.8769C151.183 49.024 150.492 48.3326 149.639 48.3326C148.786 48.3326 148.095 49.024 148.095 49.8769C148.095 50.7297 148.786 51.4211 149.639 51.4211ZM48.2343 70.4662C48.2343 71.319 47.543 72.0104 46.6901 72.0104C45.8373 72.0104 45.1459 71.319 45.1459 70.4662C45.1459 69.6133 45.8373 68.9219 46.6901 68.9219C47.543 68.9219 48.2343 69.6133 48.2343 70.4662ZM67.2792 72.0104C68.1321 72.0104 68.8234 71.319 68.8234 70.4662C68.8234 69.6133 68.1321 68.9219 67.2792 68.9219C66.4263 68.9219 65.735 69.6133 65.735 70.4662C65.735 71.319 66.4263 72.0104 67.2792 72.0104ZM89.4137 70.4662C89.4137 71.319 88.7223 72.0104 87.8694 72.0104C87.0166 72.0104 86.3252 71.319 86.3252 70.4662C86.3252 69.6133 87.0166 68.9219 87.8694 68.9219C88.7223 68.9219 89.4137 69.6133 89.4137 70.4662ZM108.459 72.0104C109.312 72.0104 110.004 71.319 110.004 70.4662C110.004 69.6133 109.312 68.9219 108.459 68.9219C107.607 68.9219 106.915 69.6133 106.915 70.4662C106.915 71.319 107.607 72.0104 108.459 72.0104ZM130.593 70.4662C130.593 71.319 129.901 72.0104 129.049 72.0104C128.196 72.0104 127.504 71.319 127.504 70.4662C127.504 69.6133 128.196 68.9219 129.049 68.9219C129.901 68.9219 130.593 69.6133 130.593 70.4662ZM149.639 72.0104C150.492 72.0104 151.183 71.319 151.183 70.4662C151.183 69.6133 150.492 68.9219 149.639 68.9219C148.786 68.9219 148.095 69.6133 148.095 70.4662C148.095 71.319 148.786 72.0104 149.639 72.0104ZM48.2343 91.056C48.2343 91.9088 47.543 92.6002 46.6901 92.6002C45.8373 92.6002 45.1459 91.9088 45.1459 91.056C45.1459 90.2031 45.8373 89.5117 46.6901 89.5117C47.543 89.5117 48.2343 90.2031 48.2343 91.056ZM67.2792 92.6002C68.1321 92.6002 68.8234 91.9088 68.8234 91.056C68.8234 90.2031 68.1321 89.5117 67.2792 89.5117C66.4263 89.5117 65.735 90.2031 65.735 91.056C65.735 91.9088 66.4263 92.6002 67.2792 92.6002ZM89.4137 91.056C89.4137 91.9088 88.7223 92.6002 87.8694 92.6002C87.0166 92.6002 86.3252 91.9088 86.3252 91.056C86.3252 90.2031 87.0166 89.5117 87.8694 89.5117C88.7223 89.5117 89.4137 90.2031 89.4137 91.056ZM108.459 92.6002C109.312 92.6002 110.004 91.9088 110.004 91.056C110.004 90.2031 109.312 89.5117 108.459 89.5117C107.607 89.5117 106.915 90.2031 106.915 91.056C106.915 91.9088 107.607 92.6002 108.459 92.6002ZM130.593 91.056C130.593 91.9088 129.901 92.6002 129.049 92.6002C128.196 92.6002 127.504 91.9088 127.504 91.056C127.504 90.2031 128.196 89.5117 129.049 89.5117C129.901 89.5117 130.593 90.2031 130.593 91.056ZM149.639 92.6002C150.492 92.6002 151.183 91.9088 151.183 91.056C151.183 90.2031 150.492 89.5117 149.639 89.5117C148.786 89.5117 148.095 90.2031 148.095 91.056C148.095 91.9088 148.786 92.6002 149.639 92.6002ZM48.2343 111.646C48.2343 112.499 47.543 113.19 46.6901 113.19C45.8373 113.19 45.1459 112.499 45.1459 111.646C45.1459 110.793 45.8373 110.102 46.6901 110.102C47.543 110.102 48.2343 110.793 48.2343 111.646ZM67.2792 113.19C68.1321 113.19 68.8234 112.499 68.8234 111.646C68.8234 110.793 68.1321 110.102 67.2792 110.102C66.4263 110.102 65.735 110.793 65.735 111.646C65.735 112.499 66.4263 113.19 67.2792 113.19ZM89.4137 111.646C89.4137 112.499 88.7223 113.19 87.8694 113.19C87.0166 113.19 86.3252 112.499 86.3252 111.646C86.3252 110.793 87.0166 110.102 87.8694 110.102C88.7223 110.102 89.4137 110.793 89.4137 111.646ZM108.459 113.19C109.312 113.19 110.004 112.499 110.004 111.646C110.004 110.793 109.312 110.102 108.459 110.102C107.607 110.102 106.915 110.793 106.915 111.646C106.915 112.499 107.607 113.19 108.459 113.19ZM130.593 111.646C130.593 112.499 129.901 113.19 129.049 113.19C128.196 113.19 127.504 112.499 127.504 111.646C127.504 110.793 128.196 110.102 129.049 110.102C129.901 110.102 130.593 110.793 130.593 111.646ZM149.639 113.19C150.492 113.19 151.183 112.499 151.183 111.646C151.183 110.793 150.492 110.102 149.639 110.102C148.786 110.102 148.095 110.793 148.095 111.646C148.095 112.499 148.786 113.19 149.639 113.19Z" fill="#5AD501"/>
<g opacity="0.44" filter="url(#filter0_f_754_2217)">
<circle cx="246.897" cy="304.083" r="122.608" fill="#662383"/>
</g>
<g filter="url(#filter1_d_754_2217)">
<rect x="47.8146" y="20.2109" width="374.627" height="374.627" rx="95.156" fill="white"/>
</g>
<g filter="url(#filter2_ddd_754_2217)">
<path d="M364.347 199.213C366.521 233.014 355.365 266.32 333.271 291.991C311.177 317.662 279.904 333.655 246.157 336.54C212.41 339.425 178.876 328.972 152.746 307.423C126.615 285.874 109.968 254.945 106.373 221.266L177.562 213.668C179.169 228.726 186.612 242.555 198.295 252.189C209.978 261.824 224.971 266.497 240.059 265.207C255.147 263.917 269.129 256.767 279.008 245.289C288.886 233.812 293.874 218.921 292.902 203.809L364.347 199.213Z" fill="white" stroke="#F3F3EC" stroke-width="1.82161"/>
<mask id="path-5-inside-1_754_2217" fill="white">
<path d="M364.347 199.213C366.521 233.014 355.365 266.32 333.271 291.991C311.177 317.662 279.904 333.655 246.157 336.54C212.41 339.425 178.876 328.972 152.746 307.423C126.615 285.874 109.968 254.945 106.373 221.266L177.562 213.668C179.169 228.726 186.612 242.555 198.295 252.189C209.978 261.824 224.971 266.497 240.059 265.207C255.147 263.917 269.129 256.767 279.008 245.289C288.886 233.812 293.874 218.921 292.902 203.809L364.347 199.213Z"/>
</mask>
<path d="M364.347 199.213C366.521 233.014 355.365 266.32 333.271 291.991C311.177 317.662 279.904 333.655 246.157 336.54C212.41 339.425 178.876 328.972 152.746 307.423C126.615 285.874 109.968 254.945 106.373 221.266L177.562 213.668C179.169 228.726 186.612 242.555 198.295 252.189C209.978 261.824 224.971 266.497 240.059 265.207C255.147 263.917 269.129 256.767 279.008 245.289C288.886 233.812 293.874 218.921 292.902 203.809L364.347 199.213Z" fill="white" stroke="#9700D9" stroke-width="88.7223" mask="url(#path-5-inside-1_754_2217)"/>
<path d="M223.139 295.78C223.139 296.174 223.474 296.509 223.869 296.509H224.676C225.07 296.509 225.405 296.174 225.405 295.78V283.366C225.405 282.972 225.169 282.677 224.775 282.677H224.282C223.947 282.677 223.573 282.834 223.159 283.13L220.617 285.061C220.44 285.199 220.342 285.396 220.342 285.612C220.342 285.77 220.401 285.908 220.499 286.046L220.992 286.637C221.149 286.814 221.346 286.893 221.583 286.893C221.74 286.893 221.878 286.854 222.016 286.755L223.139 285.908V295.78ZM233.203 288.292C232.159 288.292 231.391 287.465 231.391 286.519C231.391 285.494 232.159 284.765 233.341 284.765C234.543 284.765 235.351 285.415 235.351 286.519C235.351 287.465 234.602 288.292 233.578 288.292H233.203ZM233.578 290.558C234.839 290.558 235.726 291.267 235.745 292.509V292.548C235.745 293.671 234.918 294.459 233.361 294.459C231.923 294.459 231.016 293.632 231.016 292.509C231.016 291.327 232.041 290.558 233.243 290.558H233.578ZM233.361 282.499C232.12 282.499 231.095 282.834 230.248 283.504C229.401 284.194 228.987 285.061 228.987 286.125C228.987 287.681 229.834 288.923 230.957 289.415C229.558 289.947 228.593 291.228 228.593 292.942C228.593 294.085 229.046 294.991 229.952 295.681C230.859 296.371 232.002 296.725 233.381 296.725C234.76 296.725 235.903 296.371 236.809 295.661C237.696 294.952 238.149 293.987 238.149 292.745C238.149 291.011 237.065 289.731 235.647 289.396C236.967 288.824 237.775 287.484 237.775 286.125C237.775 285.061 237.361 284.194 236.514 283.504C235.666 282.834 234.602 282.499 233.361 282.499ZM249.137 293.317C249.531 293.317 249.866 292.982 249.866 292.588V291.78C249.866 291.386 249.531 291.051 249.137 291.051H248.092V288.371C248.092 287.977 247.757 287.642 247.363 287.642H246.555C246.161 287.642 245.826 287.977 245.826 288.371V291.051H242.457L246.851 283.681C246.91 283.583 246.95 283.484 246.95 283.347C246.95 283.012 246.674 282.716 246.299 282.716H245.491C245.058 282.716 244.703 282.933 244.447 283.366L239.915 290.992C239.62 291.504 239.462 291.918 239.462 292.253V292.647C239.462 292.982 239.797 293.317 240.191 293.317H245.826V295.78C245.826 296.174 246.161 296.509 246.555 296.509H247.363C247.757 296.509 248.092 296.174 248.092 295.78V293.317H249.137ZM233.745 301.435C233.883 301.514 234.041 301.553 234.179 301.553C234.415 301.553 234.612 301.435 234.77 301.179L235.184 300.45C235.263 300.312 235.302 300.194 235.302 300.056C235.302 299.8 235.164 299.622 234.908 299.484C233.726 298.834 232.524 298.499 231.302 298.499C229.095 298.499 227.361 299.169 226.12 300.509C224.879 301.849 224.248 303.543 224.248 305.612C224.248 307.76 224.898 309.474 226.219 310.775C227.539 312.075 229.253 312.725 231.361 312.725C232.839 312.725 234.159 312.331 235.361 311.543C235.538 311.425 235.637 311.248 235.637 310.991C235.637 310.814 235.598 310.676 235.499 310.538L235.144 309.987C235.006 309.77 234.809 309.652 234.514 309.652C234.376 309.652 234.218 309.691 234.061 309.77C233.213 310.223 232.386 310.459 231.578 310.459C230.179 310.459 229.036 310.006 228.15 309.1C227.263 308.213 226.81 307.051 226.81 305.612C226.81 304.135 227.243 302.972 228.09 302.085C228.938 301.199 230.002 300.765 231.302 300.765C232.071 300.765 232.878 300.982 233.745 301.435ZM237.241 310.046C237.122 310.164 237.063 310.302 237.063 310.479C237.063 310.716 237.142 310.913 237.32 311.051C238.521 312.174 239.881 312.725 241.398 312.725C242.718 312.725 243.802 312.351 244.689 311.622C245.575 310.893 246.009 309.967 246.009 308.824C246.009 304.233 239.763 305.139 239.763 302.282C239.763 301.356 240.512 300.765 241.694 300.765C242.305 300.765 242.975 300.943 243.664 301.277C243.763 301.337 243.881 301.356 244.019 301.356C244.295 301.356 244.511 301.218 244.669 300.962L245.043 300.312C245.103 300.213 245.142 300.095 245.142 299.977C245.142 299.681 245.024 299.484 244.787 299.347C243.782 298.775 242.699 298.499 241.497 298.499C240.196 298.499 239.152 298.854 238.384 299.583C237.595 300.312 237.201 301.218 237.201 302.302C237.201 306.775 243.447 306.144 243.447 308.844C243.447 309.868 242.62 310.459 241.438 310.459C240.669 310.459 239.822 310.085 238.935 309.356C238.758 309.218 238.581 309.139 238.384 309.139C238.206 309.139 238.029 309.218 237.891 309.356L237.241 310.046Z" fill="#E1E1E1"/>
<path d="M106.417 221.666C103.719 197.111 108.101 172.297 119.046 150.151C129.992 128.005 147.044 109.453 168.19 96.6827C189.336 83.9124 213.693 77.4574 238.388 78.0794C263.083 78.7013 287.085 86.3742 307.561 100.193L267.513 159.536C258.358 153.358 247.627 149.928 236.586 149.65C225.544 149.371 214.654 152.257 205.2 157.967C195.746 163.677 188.122 171.971 183.228 181.873C178.334 191.774 176.375 202.869 177.581 213.847L106.417 221.666Z" fill="white" stroke="#F3F3EC" stroke-width="1.82161"/>
<mask id="path-8-inside-2_754_2217" fill="white">
<path d="M106.417 221.666C103.719 197.111 108.101 172.297 119.046 150.151C129.992 128.005 147.044 109.453 168.19 96.6827C189.336 83.9124 213.693 77.4574 238.388 78.0794C263.083 78.7013 287.085 86.3742 307.561 100.193L267.513 159.536C258.358 153.358 247.627 149.928 236.586 149.65C225.544 149.371 214.654 152.257 205.2 157.967C195.746 163.677 188.122 171.971 183.228 181.873C178.334 191.774 176.375 202.869 177.581 213.847L106.417 221.666Z"/>
</mask>
<path d="M106.417 221.666C103.719 197.111 108.101 172.297 119.046 150.151C129.992 128.005 147.044 109.453 168.19 96.6827C189.336 83.9124 213.693 77.4574 238.388 78.0794C263.083 78.7013 287.085 86.3742 307.561 100.193L267.513 159.536C258.358 153.358 247.627 149.928 236.586 149.65C225.544 149.371 214.654 152.257 205.2 157.967C195.746 163.677 188.122 171.971 183.228 181.873C178.334 191.774 176.375 202.869 177.581 213.847L106.417 221.666Z" fill="white" stroke="#8B40AC" stroke-width="88.7223" mask="url(#path-8-inside-2_754_2217)"/>
<path d="M170.113 141.116C170.374 141.411 170.847 141.439 171.142 141.178L171.746 140.642C172.041 140.38 172.07 139.907 171.808 139.613L163.573 130.324C163.312 130.029 162.939 129.965 162.644 130.226L162.275 130.553C162.025 130.775 161.849 131.142 161.736 131.637L161.115 134.768C161.073 134.989 161.13 135.202 161.274 135.364C161.379 135.482 161.515 135.546 161.68 135.584L162.44 135.699C162.676 135.728 162.876 135.656 163.053 135.499C163.171 135.394 163.248 135.273 163.286 135.108L163.564 133.729L170.113 141.116ZM168.155 125.103C167.182 125.966 166.593 127.173 166.39 128.696C166.348 128.917 166.42 129.117 166.577 129.294C166.695 129.426 166.843 129.505 167.01 129.515L167.621 129.58C167.856 129.608 168.069 129.551 168.246 129.394C168.379 129.276 168.457 129.127 168.495 128.962C168.662 128.051 168.995 127.387 169.496 126.943C170.366 126.171 171.24 126.266 171.919 127.033C172.69 127.902 172.452 129.088 171.523 129.912C171.169 130.226 171.141 130.699 171.402 130.993L171.938 131.598C172.199 131.893 172.672 131.921 172.967 131.66L173.159 131.49C174.353 130.431 175.533 130.307 176.369 131.25C177.101 132.076 177.033 133.216 175.971 134.157C175.396 134.667 174.527 134.964 173.321 135.059C173.152 135.077 172.995 135.137 172.877 135.242C172.715 135.385 172.633 135.59 172.633 135.827L172.684 136.598C172.676 136.737 172.736 136.894 172.867 137.041C173.037 137.233 173.213 137.314 173.438 137.299C175.2 137.238 176.295 136.899 177.578 135.761C178.551 134.899 179.113 133.9 179.251 132.777C179.401 131.67 179.059 130.63 178.235 129.701C177.124 128.448 175.513 128.086 174.05 128.961C174.679 127.561 174.478 126.265 173.445 125.1C172.02 123.493 169.939 123.522 168.155 125.103ZM181.34 128.265C181.116 128.28 180.916 128.351 180.769 128.482C180.607 128.626 180.541 128.789 180.542 128.999L180.533 129.612C180.522 129.807 180.595 129.979 180.726 130.126C180.844 130.259 181.02 130.34 181.215 130.351C182.804 130.391 184.099 129.98 185.072 129.118C186.089 128.216 186.655 127.161 186.771 125.926C186.887 124.69 186.468 123.535 185.514 122.458C184.638 121.471 183.623 120.949 182.482 120.88C181.327 120.825 180.284 121.223 179.355 122.046C179.178 122.203 179 122.388 178.818 122.628L177.296 120.317L180.141 117.794C180.436 117.533 180.465 117.06 180.203 116.765L179.667 116.161C179.406 115.866 178.933 115.837 178.638 116.099L174.849 119.458C174.539 119.733 174.483 120.204 174.713 120.553L177.808 125.024C177.821 125.039 177.885 125.14 177.898 125.155C178.212 125.509 178.657 125.536 179.026 125.209C179.04 125.196 179.086 125.129 179.13 125.089C179.342 124.823 179.609 124.56 179.948 124.259C181.305 123.057 182.825 123.078 183.766 124.14C184.668 125.157 184.6 126.507 183.613 127.383C183.008 127.919 182.25 128.222 181.34 128.265ZM161.957 153.245C161.696 152.95 161.223 152.922 160.928 153.183L160.205 153.824C159.911 154.085 159.882 154.558 160.143 154.853L168.326 164.082C168.588 164.377 169.06 164.406 169.355 164.144L170.078 163.504C170.373 163.242 170.401 162.769 170.14 162.475L161.957 153.245ZM177.032 157.338C177.327 157.077 177.355 156.604 177.094 156.309L169.931 148.229L172.732 145.746C173.027 145.484 173.056 145.012 172.794 144.717L172.258 144.112C171.997 143.817 171.524 143.789 171.229 144.05L163.813 150.625C163.518 150.887 163.49 151.36 163.751 151.654L164.287 152.259C164.548 152.554 165.021 152.582 165.316 152.321L168.117 149.837L175.281 157.917C175.542 158.212 176.015 158.24 176.31 157.979L177.032 157.338ZM185.565 138.845C185.343 138.594 184.872 138.538 184.592 138.787L184.002 139.309C183.692 139.584 183.651 140.042 183.91 140.365C184.647 141.344 185.13 142.364 185.402 143.413L181.083 142.582C181.597 141.705 181.443 140.314 180.646 139.415C180.044 138.736 179.325 138.4 178.472 138.419C177.633 138.452 176.875 138.755 176.211 139.343C175.548 139.932 175.156 140.648 175.022 141.477C174.902 142.321 175.149 143.076 175.751 143.754C176.587 144.698 177.574 145.009 178.682 144.684C178.387 145.867 178.285 146.88 178.346 147.721C178.405 148.59 178.775 149.394 179.468 150.175C180.239 151.045 181.191 151.465 182.309 151.449C183.44 151.447 184.528 150.982 185.56 150.067C186.858 148.917 187.509 147.602 187.529 146.11L188.756 146.365C189.114 146.442 189.427 146.349 189.737 146.075L190.444 145.447C190.724 145.199 190.722 144.78 190.499 144.529C190.395 144.412 190.274 144.334 190.135 144.326L187.622 143.868C187.475 142.128 186.808 140.455 185.591 138.875L185.565 138.845ZM185.308 145.683C185.388 146.665 184.986 147.548 184.116 148.319C183.217 149.116 181.882 149.036 181.084 148.137C180.418 147.385 180.349 146.446 180.65 144.677L185.308 145.683ZM177.328 142.356C176.897 141.869 176.94 141.146 177.427 140.715C177.899 140.296 178.637 140.327 179.068 140.813C179.486 141.285 179.443 142.008 178.956 142.44C178.47 142.871 177.747 142.828 177.328 142.356ZM192.752 129.445C191.392 127.912 189.444 127.823 187.099 129.901C186.834 130.136 186.036 130.87 184.706 132.102C184.424 132.378 184.396 132.851 184.67 133.161L192.827 142.361C193.088 142.656 193.561 142.684 193.869 142.437C194.573 141.866 195.368 141.188 196.238 140.416C198.538 138.377 199.143 135.971 197.326 133.922C196.176 132.624 194.694 132.437 193.369 133.111C193.938 131.764 193.732 130.551 192.752 129.445ZM192.472 135.723C193.607 134.717 194.663 134.571 195.434 135.441C196.31 136.429 196.12 137.492 194.867 138.603C194.484 138.943 194.06 139.266 193.608 139.588L191.189 136.861L192.472 135.723ZM187.477 132.673C187.775 132.356 188.146 132.002 188.573 131.623C189.576 130.734 190.6 130.642 191.332 131.468C192.13 132.367 191.914 133.401 191.015 134.198L189.791 135.283L187.477 132.673ZM208.885 128.361C209.237 128.549 209.546 128.512 209.856 128.238L210.49 127.676C210.829 127.375 210.829 126.901 210.555 126.591C210.49 126.517 210.423 126.471 210.328 126.424L198.347 120.693C197.981 120.517 197.657 120.567 197.362 120.829L196.655 121.456C196.36 121.718 196.271 122.033 196.401 122.418L200.656 134.999C200.692 135.098 200.729 135.17 200.795 135.244C201.069 135.554 201.54 135.61 201.879 135.309L202.41 134.839C202.72 134.564 202.794 134.262 202.649 133.89L201.589 130.853L205.997 126.945L208.885 128.361ZM203.801 125.864L200.779 128.543L199.043 123.526L203.801 125.864Z" fill="#E1E1E1"/>
<path d="M307.498 100.15C324.014 111.282 337.739 126.073 347.606 143.374C357.473 160.674 363.217 180.018 364.389 199.9L292.921 204.115C292.396 195.226 289.829 186.578 285.417 178.843C281.005 171.107 274.869 164.494 267.485 159.517L307.498 100.15Z" fill="white" stroke="#F3F3EC" stroke-width="1.82161"/>
<mask id="path-11-inside-3_754_2217" fill="white">
<path d="M307.498 100.15C324.014 111.282 337.739 126.073 347.606 143.374C357.473 160.674 363.217 180.018 364.389 199.9L292.921 204.115C292.396 195.226 289.829 186.578 285.417 178.843C281.005 171.107 274.869 164.494 267.485 159.517L307.498 100.15Z"/>
</mask>
<path d="M307.498 100.15C324.014 111.282 337.739 126.073 347.606 143.374C357.473 160.674 363.217 180.018 364.389 199.9L292.921 204.115C292.396 195.226 289.829 186.578 285.417 178.843C281.005 171.107 274.869 164.494 267.485 159.517L307.498 100.15Z" fill="white" stroke="#D688FF" stroke-width="88.7223" mask="url(#path-11-inside-3_754_2217)"/>
<path d="M318.165 152.03C318.195 151.807 318.165 151.597 318.067 151.427C317.958 151.239 317.811 151.142 317.606 151.101L317.006 150.969C316.818 150.919 316.635 150.956 316.464 151.055C316.311 151.144 316.196 151.301 316.146 151.489C315.789 153.038 315.932 154.388 316.582 155.515C317.262 156.692 318.181 157.458 319.368 157.819C320.555 158.18 321.772 158.002 323.017 157.282C324.161 156.622 324.875 155.732 325.171 154.628C325.457 153.508 325.276 152.406 324.655 151.331C324.537 151.127 324.392 150.915 324.193 150.688L326.762 149.66L328.663 152.953C328.86 153.295 329.318 153.417 329.659 153.22L330.359 152.816C330.7 152.619 330.823 152.162 330.626 151.82L328.094 147.435C327.887 147.077 327.436 146.927 327.048 147.083L322.048 149.219C322.031 149.229 321.918 149.271 321.901 149.281C321.492 149.517 321.376 149.948 321.623 150.375C321.633 150.392 321.689 150.45 321.719 150.501C321.937 150.762 322.142 151.076 322.368 151.469C323.275 153.038 322.949 154.523 321.72 155.233C320.543 155.913 319.234 155.576 318.574 154.433C318.17 153.733 318.024 152.93 318.165 152.03ZM327.295 167.253C327.492 167.594 327.95 167.717 328.291 167.52L328.991 167.116C329.332 166.919 329.454 166.461 329.257 166.12L328.735 165.216L331.056 163.876C331.397 163.679 331.52 163.221 331.323 162.88L330.919 162.18C330.722 161.839 330.264 161.717 329.923 161.914L327.602 163.253L325.918 160.335L334.497 160.456C334.611 160.458 334.716 160.443 334.836 160.374C335.126 160.207 335.244 159.82 335.057 159.496L334.653 158.796C334.436 158.421 334.071 158.222 333.568 158.217L324.698 158.105C324.106 158.105 323.669 158.175 323.379 158.343L323.038 158.54C322.748 158.707 322.625 159.165 322.822 159.506L325.64 164.386L323.507 165.618C323.166 165.815 323.043 166.273 323.24 166.614L323.644 167.313C323.841 167.655 324.299 167.777 324.64 167.58L326.773 166.349L327.295 167.253ZM312.942 153.192C312.735 152.834 312.288 152.728 311.946 152.925L301.264 159.092C300.923 159.289 300.8 159.747 300.997 160.088C301.837 161.583 302.343 162.497 302.549 162.855C303.81 165.04 305.366 166.394 307.216 166.918C309.039 167.436 310.851 167.186 312.626 166.161C315.783 164.339 317.417 160.824 314.658 156.046C314.629 155.995 314.06 155.049 312.942 153.192ZM311.827 155.792C312.137 156.251 312.42 156.701 312.676 157.145C314.302 159.961 313.785 162.534 311.345 163.943C308.803 165.411 306.196 164.64 304.551 161.791C304.256 161.279 304.017 160.825 303.807 160.423L311.827 155.792ZM309.645 170.14C309.483 170.096 309.334 170.114 309.18 170.203C308.976 170.321 308.844 170.488 308.814 170.71C308.442 172.313 308.644 173.766 309.403 175.08C310.063 176.223 310.929 176.975 312.003 177.378C313.078 177.781 314.097 177.694 315.087 177.122C319.063 174.827 315.155 169.871 317.629 168.442C318.431 167.979 319.317 168.332 319.908 169.356C320.214 169.885 320.395 170.554 320.45 171.318C320.448 171.433 320.49 171.546 320.559 171.665C320.697 171.904 320.925 172.023 321.225 172.031L321.976 172.03C322.09 172.032 322.213 172.007 322.315 171.948C322.571 171.8 322.682 171.599 322.684 171.326C322.676 170.17 322.373 169.093 321.772 168.052C321.122 166.926 320.293 166.199 319.277 165.898C318.252 165.58 317.27 165.692 316.331 166.234C312.457 168.47 316.127 173.564 313.789 174.914C312.901 175.426 311.976 175.005 311.385 173.981C311 173.316 310.901 172.395 311.089 171.262C311.12 171.04 311.099 170.847 311.001 170.676C310.912 170.523 310.755 170.409 310.567 170.358L309.645 170.14Z" fill="#EFEDED"/>
</g>
<circle cx="235.128" cy="207.524" r="60.1108" fill="white"/>
<path d="M226.727 190.322C225.426 190.322 224.185 190.834 223.022 191.839C222.845 191.977 222.766 192.174 222.766 192.411C222.766 192.588 222.825 192.746 222.944 192.864L223.357 193.317C223.515 193.494 223.712 193.593 223.948 193.593C224.126 193.593 224.283 193.534 224.421 193.435C225.15 192.864 225.84 192.588 226.51 192.588C227.672 192.588 228.264 193.238 228.264 194.263C228.264 195.425 227.298 196.154 226.057 196.154C225.584 196.154 225.249 196.489 225.249 196.883V197.691C225.249 198.085 225.584 198.42 225.978 198.42H226.234C227.83 198.42 228.796 199.11 228.796 200.371C228.796 201.474 227.988 202.282 226.569 202.282C225.801 202.282 224.953 201.928 223.988 201.199C223.85 201.1 223.692 201.041 223.535 201.041C223.318 201.041 223.121 201.139 222.963 201.317L222.49 201.928C222.392 202.026 222.333 202.184 222.333 202.381C222.333 202.637 222.412 202.814 222.589 202.952C223.948 204.075 224.993 204.548 226.707 204.548C228.007 204.548 229.091 204.174 229.938 203.425C230.786 202.696 231.219 201.691 231.219 200.45C231.219 198.775 230.254 197.435 228.579 197.12C229.978 196.489 230.687 195.386 230.687 193.829C230.687 191.682 229.111 190.322 226.727 190.322ZM235.875 204.331C236.328 204.331 236.742 204.036 236.899 203.622L241.234 192.765C241.471 192.154 241.589 191.76 241.589 191.544V191.287C241.589 190.874 241.254 190.539 240.86 190.539H233.569C233.175 190.539 232.84 190.874 232.84 191.268V192.076C232.84 192.47 233.175 192.805 233.569 192.805H238.791L234.574 203.287C234.535 203.386 234.515 203.484 234.515 203.583C234.515 203.977 234.87 204.331 235.284 204.331H235.875ZM246.912 190.322C245.611 190.322 244.37 190.834 243.207 191.839C243.03 191.977 242.951 192.174 242.951 192.411C242.951 192.588 243.01 192.746 243.128 192.864L243.542 193.317C243.7 193.494 243.897 193.593 244.133 193.593C244.311 193.593 244.468 193.534 244.606 193.435C245.335 192.864 246.025 192.588 246.695 192.588C247.857 192.588 248.448 193.238 248.448 194.263C248.448 195.425 247.483 196.154 246.242 196.154C245.769 196.154 245.434 196.489 245.434 196.883V197.691C245.434 198.085 245.769 198.42 246.163 198.42H246.419C248.015 198.42 248.98 199.11 248.98 200.371C248.98 201.474 248.173 202.282 246.754 202.282C245.985 202.282 245.138 201.928 244.173 201.199C244.035 201.1 243.877 201.041 243.72 201.041C243.503 201.041 243.306 201.139 243.148 201.317L242.675 201.928C242.577 202.026 242.518 202.184 242.518 202.381C242.518 202.637 242.596 202.814 242.774 202.952C244.133 204.075 245.178 204.548 246.892 204.548C248.192 204.548 249.276 204.174 250.123 203.425C250.971 202.696 251.404 201.691 251.404 200.45C251.404 198.775 250.439 197.435 248.764 197.12C250.163 196.489 250.872 195.386 250.872 193.829C250.872 191.682 249.296 190.322 246.912 190.322ZM203.823 214.864C203.921 214.923 204.04 214.962 204.138 214.962C204.276 214.962 204.414 214.903 204.532 214.785C204.611 214.686 204.65 214.588 204.65 214.489C204.65 214.332 204.591 214.213 204.473 214.115C203.665 213.563 202.621 213.287 201.301 213.287C200.04 213.287 198.995 213.721 198.148 214.608C197.301 215.494 196.887 216.598 196.887 217.898C196.887 219.297 197.321 220.4 198.207 221.248C199.074 222.095 200.197 222.509 201.577 222.509C202.857 222.509 203.902 222.095 204.749 221.267C204.926 221.09 204.926 220.775 204.749 220.617C204.65 220.519 204.532 220.479 204.414 220.479C204.276 220.479 204.158 220.538 204.059 220.637C203.35 221.248 202.542 221.543 201.655 221.543C200.591 221.543 199.705 221.208 199.015 220.538C198.325 219.888 197.971 219.001 197.971 217.898C197.971 216.854 198.306 215.987 198.995 215.297C199.685 214.608 200.493 214.253 201.458 214.253C202.424 214.253 203.212 214.45 203.823 214.864ZM210.236 214.489H213.27C213.526 214.489 213.763 214.292 213.763 213.997C213.763 213.681 213.566 213.465 213.27 213.465H206.177C205.921 213.465 205.684 213.662 205.684 213.957C205.684 214.273 205.881 214.489 206.177 214.489H209.211V221.918C209.211 222.213 209.408 222.41 209.704 222.41C210.019 222.41 210.236 222.213 210.236 221.918V214.489ZM215.894 213.78C215.775 213.544 215.618 213.425 215.401 213.425C215.027 213.425 214.83 213.662 214.83 213.957C214.83 214.056 214.849 214.135 214.889 214.233L218.889 222.331L218.692 222.804C217.923 224.617 217.273 225.326 216.386 225.326C216.209 225.326 215.992 225.287 215.736 225.188C215.657 225.169 215.598 225.149 215.539 225.149C215.342 225.149 215.204 225.228 215.125 225.386C215.086 225.464 215.066 225.543 215.066 225.602C215.066 225.78 215.145 225.918 215.322 225.996C215.657 226.174 216.071 226.272 216.524 226.272C217.155 226.272 217.706 225.996 218.199 225.464C218.672 224.913 219.224 223.868 219.854 222.331L223.145 214.194C223.184 214.115 223.204 214.036 223.204 213.938C223.204 213.603 223.027 213.425 222.672 213.425C222.416 213.425 222.238 213.544 222.16 213.8L219.894 219.691C219.637 220.42 219.46 220.893 219.401 221.11L218.77 219.731L215.894 213.78ZM232.213 222.331V224.124C232.213 224.696 233.179 224.696 233.179 224.124V221.878C233.179 221.583 232.923 221.366 232.666 221.366H231.701V213.977C231.701 213.721 231.484 213.465 231.189 213.465H226.558C226.263 213.465 226.026 213.681 226.026 213.977L225.908 215.967C225.75 218.548 225.1 220.558 224.47 221.366H223.879C223.622 221.366 223.366 221.583 223.366 221.878V224.124C223.366 224.696 224.332 224.696 224.332 224.124V222.331H232.213ZM225.553 221.366C225.81 221.031 226.085 220.42 226.361 219.494C226.617 218.588 226.795 217.543 226.893 216.361L227.011 214.43H230.676V221.366H225.553ZM235.377 217.268C235.555 215.474 236.776 214.253 238.687 214.253C240.559 214.253 241.742 215.396 241.761 217.268H235.377ZM242.806 217.287C242.806 216.085 242.431 215.12 241.663 214.391C240.894 213.662 239.949 213.287 238.786 213.287C237.387 213.287 236.284 213.721 235.495 214.588C234.688 215.455 234.294 216.558 234.294 217.898C234.294 219.297 234.727 220.4 235.594 221.248C236.461 222.095 237.604 222.509 239.003 222.509C240.185 222.509 241.21 222.154 242.096 221.464C242.195 221.366 242.234 221.267 242.234 221.149C242.234 221.051 242.195 220.972 242.136 220.873C242.017 220.735 241.88 220.676 241.742 220.676C241.643 220.676 241.564 220.716 241.466 220.775C240.756 221.287 239.949 221.543 239.062 221.543C236.934 221.543 235.515 220.243 235.436 218.115H242.372C242.589 218.115 242.786 217.898 242.786 217.721C242.806 217.622 242.806 217.484 242.806 217.287ZM253.098 213.918C253.098 213.622 252.862 213.425 252.606 213.425C252.29 213.425 252.074 213.622 252.074 213.918V217.346H246.32V213.918C246.32 213.622 246.084 213.425 245.828 213.425C245.512 213.425 245.296 213.622 245.296 213.918V221.918C245.296 222.213 245.532 222.41 245.788 222.41C246.103 222.41 246.32 222.213 246.32 221.918V218.312H252.074V221.918C252.074 222.568 253.098 222.568 253.098 221.918V213.918ZM259.457 214.489H262.491C262.747 214.489 262.984 214.292 262.984 213.997C262.984 213.681 262.787 213.465 262.491 213.465H255.398C255.142 213.465 254.905 213.662 254.905 213.957C254.905 214.273 255.102 214.489 255.398 214.489H258.432V221.918C258.432 222.213 258.629 222.41 258.925 222.41C259.24 222.41 259.457 222.213 259.457 221.918V214.489ZM272.748 213.957C272.748 213.603 272.571 213.425 272.196 213.425C271.94 213.425 271.684 213.583 271.448 213.878L265.812 220.854V213.918C265.812 213.622 265.576 213.425 265.32 213.425C265.004 213.425 264.788 213.622 264.788 213.918V221.839C264.788 222.213 264.985 222.41 265.359 222.41C265.615 222.41 265.871 222.272 266.088 221.977L271.723 215.002V221.918C271.723 222.213 271.96 222.41 272.216 222.41C272.531 222.41 272.748 222.213 272.748 221.918V213.957Z" fill="#52616B"/>
<circle cx="208.299" cy="197.553" r="5.92024" fill="#5AD501"/>
<defs>
<filter id="filter0_f_754_2217" x="-33.0448" y="24.1412" width="559.884" height="559.884" filterUnits="userSpaceOnUse" color-interpolation-filters="sRGB">
<feFlood flood-opacity="0" result="BackgroundImageFix"/>
<feBlend mode="normal" in="SourceGraphic" in2="BackgroundImageFix" result="shape"/>
<feGaussianBlur stdDeviation="78.6673" result="effect1_foregroundBlur_754_2217"/>
</filter>
<filter id="filter1_d_754_2217" x="8.95858" y="0.782938" width="452.339" height="452.339" filterUnits="userSpaceOnUse" color-interpolation-filters="sRGB">
<feFlood flood-opacity="0" result="BackgroundImageFix"/>
<feColorMatrix in="SourceAlpha" type="matrix" values="0 0 0 0 0 0 0 0 0 0 0 0 0 0 0 0 0 0 127 0" result="hardAlpha"/>
<feOffset dy="19.428"/>
<feGaussianBlur stdDeviation="19.428"/>
<feColorMatrix type="matrix" values="0 0 0 0 0 0 0 0 0 0 0 0 0 0 0 0 0 0 0.04 0"/>
<feBlend mode="normal" in2="BackgroundImageFix" result="effect1_dropShadow_754_2217"/>
<feBlend mode="normal" in="SourceGraphic" in2="effect1_dropShadow_754_2217" result="shape"/>
</filter>
<filter id="filter2_ddd_754_2217" x="83.7311" y="60.6816" width="302.794" height="305.17" filterUnits="userSpaceOnUse" color-interpolation-filters="sRGB">
<feFlood flood-opacity="0" result="BackgroundImageFix"/>
<feColorMatrix in="SourceAlpha" type="matrix" values="0 0 0 0 0 0 0 0 0 0 0 0 0 0 0 0 0 0 127 0" result="hardAlpha"/>
<feOffset dy="6.37564"/>
<feGaussianBlur stdDeviation="7"/>
<feColorMatrix type="matrix" values="0 0 0 0 0.529412 0 0 0 0 0.180392 0 0 0 0 0.678431 0 0 0 0.22 0"/>
<feBlend mode="normal" in2="BackgroundImageFix" result="effect1_dropShadow_754_2217"/>
<feColorMatrix in="SourceAlpha" type="matrix" values="0 0 0 0 0 0 0 0 0 0 0 0 0 0 0 0 0 0 127 0" result="hardAlpha"/>
<feOffset dy="4.55403"/>
<feGaussianBlur stdDeviation="10.5"/>
<feColorMatrix type="matrix" values="0 0 0 0 0.529412 0 0 0 0 0.180392 0 0 0 0 0.678431 0 0 0 0.12 0"/>
<feBlend mode="normal" in2="effect1_dropShadow_754_2217" result="effect2_dropShadow_754_2217"/>
<feColorMatrix in="SourceAlpha" type="matrix" values="0 0 0 0 0 0 0 0 0 0 0 0 0 0 0 0 0 0 127 0" result="hardAlpha"/>
<feOffset dy="10.9297"/>
<feGaussianBlur stdDeviation="8.5"/>
<feColorMatrix type="matrix" values="0 0 0 0 0.529412 0 0 0 0 0.180392 0 0 0 0 0.678431 0 0 0 0.14 0"/>
<feBlend mode="normal" in2="effect2_dropShadow_754_2217" result="effect3_dropShadow_754_2217"/>
<feBlend mode="normal" in="SourceGraphic" in2="effect3_dropShadow_754_2217" result="shape"/>
</filter>
</defs>
</svg>
